<svg width="210" height="40" viewBox="0 0 210 40" fill="none" xmlns="http://www.w3.org/2000/svg">
<path d="M16.1903 28.3598C16.5562 28.3598 16.9186 28.2879 17.2567 28.1478C17.5948 28.0078 17.902 27.8026 18.1608 27.5438C18.4195 27.2851 18.6248 26.9779 18.7649 26.6398C18.9049 26.3017 18.977 25.9393 18.977 25.5734C18.977 20.3999 21.0321 15.4384 24.6903 11.7802C28.3484 8.12198 33.3101 6.06683 38.4836 6.06683C43.657 6.06683 48.6187 8.12198 52.2767 11.7802C55.9351 15.4384 57.9901 20.3999 57.9901 25.5734C57.9973 26.3076 58.2942 27.0093 58.8161 27.5259C59.3377 28.0425 60.0424 28.3323 60.7768 28.3323C61.511 28.3323 62.2157 28.0425 62.7373 27.5259C63.2592 27.0093 63.5561 26.3076 63.5633 25.5734C63.5633 22.2799 62.9145 19.0186 61.6543 15.9758C60.3938 12.933 58.5465 10.1682 56.2177 7.83933C53.8886 5.51046 51.1239 3.6631 48.0812 2.40274C45.0382 1.14236 41.7772 0.493652 38.4836 0.493652C35.1899 0.493652 31.9289 1.14236 28.8859 2.40274C25.8431 3.6631 23.0784 5.51046 20.7495 7.83933C18.4206 10.1682 16.5733 12.933 15.3129 15.9758C14.0525 19.0186 13.4038 22.2799 13.4038 25.5734C13.4038 26.3124 13.6974 27.0212 14.2199 27.5437C14.7425 28.0663 15.4513 28.3598 16.1903 28.3598Z" fill="#13CF8F"/>
<path d="M74.1529 33.933H49.6212C51.4376 31.5249 52.4185 28.5899 52.4154 25.5734C52.4154 21.878 50.9474 18.3341 48.3345 15.7211C45.7214 13.1081 42.1774 11.6401 38.4821 11.6401C34.787 11.6401 31.243 13.1081 28.6299 15.7211C26.0169 18.3341 24.549 21.878 24.549 25.5734C24.549 26.3125 24.8426 27.0213 25.3652 27.5439C25.8878 28.0665 26.5966 28.3601 27.3357 28.3601C28.0749 28.3601 28.7837 28.0665 29.3062 27.5439C29.8289 27.0213 30.1224 26.3125 30.1224 25.5734C30.1224 23.9199 30.6126 22.3036 31.5312 20.9288C32.4499 19.554 33.7554 18.4824 35.283 17.8496C36.8106 17.2168 38.4915 17.0512 40.1132 17.3738C41.7348 17.6963 43.2245 18.4925 44.3935 19.6616C45.5628 20.8308 46.359 22.3204 46.6817 23.9421C47.0042 25.5637 46.8386 27.2446 46.206 28.7721C45.5731 30.2997 44.5018 31.6056 43.1269 32.5242C41.752 33.4428 40.1357 33.933 38.4823 33.933H2.81458C2.44629 33.9294 2.08093 33.9987 1.73962 34.1372C1.3983 34.2755 1.08781 34.4802 0.826084 34.7392C0.564359 34.9985 0.356588 35.3068 0.214797 35.6467C0.0730045 35.9867 0 36.3514 0 36.7197C0 37.0878 0.0730045 37.4525 0.214797 37.7925C0.356588 38.1324 0.564359 38.4407 0.826084 38.7C1.08781 38.959 1.3983 39.1637 1.73962 39.302C2.08093 39.4405 2.44629 39.5098 2.81458 39.5062H74.1529C74.8871 39.499 75.5887 39.2021 76.1053 38.6802C76.6219 38.1586 76.9118 37.4539 76.9118 36.7197C76.9118 35.9853 76.6219 35.2806 76.1053 34.759C75.5887 34.2371 74.8871 33.9402 74.1529 33.933Z" fill="#13CF8F"/>
<path d="M98.5676 11.864V29H102.096V17.528H102.144L109.272 29H113.04V11.864H109.512V23.36H109.464L102.312 11.864H98.5676ZM124.849 21.464H119.305C119.321 21.224 119.369 20.952 119.449 20.648C119.545 20.344 119.697 20.056 119.905 19.784C120.129 19.512 120.417 19.288 120.769 19.112C121.137 18.92 121.593 18.824 122.137 18.824C122.969 18.824 123.585 19.048 123.985 19.496C124.401 19.944 124.689 20.6 124.849 21.464ZM119.305 23.624H128.257C128.321 22.664 128.241 21.744 128.017 20.864C127.793 19.984 127.425 19.2 126.913 18.512C126.417 17.824 125.777 17.28 124.993 16.88C124.209 16.464 123.289 16.256 122.233 16.256C121.289 16.256 120.425 16.424 119.641 16.76C118.873 17.096 118.209 17.56 117.649 18.152C117.089 18.728 116.657 19.416 116.353 20.216C116.049 21.016 115.897 21.88 115.897 22.808C115.897 23.768 116.041 24.648 116.329 25.448C116.633 26.248 117.057 26.936 117.601 27.512C118.145 28.088 118.809 28.536 119.593 28.856C120.377 29.16 121.257 29.312 122.233 29.312C123.641 29.312 124.841 28.992 125.833 28.352C126.825 27.712 127.561 26.648 128.041 25.16H125.041C124.929 25.544 124.625 25.912 124.129 26.264C123.633 26.6 123.041 26.768 122.353 26.768C121.393 26.768 120.657 26.52 120.145 26.024C119.633 25.528 119.353 24.728 119.305 23.624ZM133.946 22.472L129.482 29H133.298L135.89 25.088L138.482 29H142.37L137.786 22.4L141.866 16.592H138.098L135.938 19.832L133.754 16.592H129.866L133.946 22.472ZM148.489 16.592V12.872H145.081V16.592H143.017V18.872H145.081V26.192C145.081 26.816 145.185 27.32 145.393 27.704C145.601 28.088 145.881 28.384 146.233 28.592C146.601 28.8 147.017 28.936 147.481 29C147.961 29.08 148.465 29.12 148.993 29.12C149.329 29.12 149.673 29.112 150.025 29.096C150.377 29.08 150.697 29.048 150.985 29V26.36C150.825 26.392 150.657 26.416 150.481 26.432C150.305 26.448 150.121 26.456 149.929 26.456C149.353 26.456 148.969 26.36 148.777 26.168C148.585 25.976 148.489 25.592 148.489 25.016V18.872H150.985V16.592H148.489ZM164.89 17.624H168.538C168.426 16.632 168.154 15.752 167.722 14.984C167.29 14.216 166.738 13.576 166.066 13.064C165.41 12.536 164.658 12.136 163.81 11.864C162.978 11.592 162.09 11.456 161.146 11.456C159.834 11.456 158.65 11.688 157.594 12.152C156.554 12.616 155.674 13.256 154.954 14.072C154.234 14.888 153.682 15.848 153.298 16.952C152.914 18.04 152.722 19.224 152.722 20.504C152.722 21.752 152.914 22.92 153.298 24.008C153.682 25.08 154.234 26.016 154.954 26.816C155.674 27.616 156.554 28.248 157.594 28.712C158.65 29.16 159.834 29.384 161.146 29.384C162.202 29.384 163.17 29.224 164.05 28.904C164.93 28.584 165.698 28.12 166.354 27.512C167.01 26.904 167.538 26.168 167.938 25.304C168.338 24.44 168.586 23.472 168.682 22.4H165.034C164.89 23.552 164.49 24.48 163.834 25.184C163.194 25.888 162.298 26.24 161.146 26.24C160.298 26.24 159.578 26.08 158.986 25.76C158.394 25.424 157.914 24.984 157.546 24.44C157.178 23.896 156.906 23.288 156.73 22.616C156.57 21.928 156.49 21.224 156.49 20.504C156.49 19.752 156.57 19.024 156.73 18.32C156.906 17.616 157.178 16.992 157.546 16.448C157.914 15.888 158.394 15.448 158.986 15.128C159.578 14.792 160.298 14.624 161.146 14.624C161.61 14.624 162.05 14.704 162.466 14.864C162.898 15.008 163.282 15.216 163.618 15.488C163.954 15.76 164.234 16.08 164.458 16.448C164.682 16.8 164.826 17.192 164.89 17.624ZM171.395 16.592V29H174.803V23.408C174.803 22.848 174.859 22.328 174.971 21.848C175.083 21.368 175.267 20.952 175.523 20.6C175.795 20.232 176.147 19.944 176.579 19.736C177.011 19.528 177.539 19.424 178.163 19.424C178.371 19.424 178.587 19.44 178.811 19.472C179.035 19.488 179.227 19.512 179.387 19.544V16.376C179.115 16.296 178.867 16.256 178.643 16.256C178.211 16.256 177.795 16.32 177.395 16.448C176.995 16.576 176.619 16.76 176.267 17C175.915 17.224 175.603 17.504 175.331 17.84C175.059 18.16 174.843 18.512 174.683 18.896H174.635V16.592H171.395ZM183.825 22.808C183.825 22.312 183.873 21.824 183.969 21.344C184.065 20.864 184.225 20.44 184.449 20.072C184.689 19.704 185.001 19.408 185.385 19.184C185.769 18.944 186.249 18.824 186.825 18.824C187.401 18.824 187.881 18.944 188.265 19.184C188.665 19.408 188.977 19.704 189.201 20.072C189.441 20.44 189.609 20.864 189.705 21.344C189.801 21.824 189.849 22.312 189.849 22.808C189.849 23.304 189.801 23.792 189.705 24.272C189.609 24.736 189.441 25.16 189.201 25.544C188.977 25.912 188.665 26.208 188.265 26.432C187.881 26.656 187.401 26.768 186.825 26.768C186.249 26.768 185.769 26.656 185.385 26.432C185.001 26.208 184.689 25.912 184.449 25.544C184.225 25.16 184.065 24.736 183.969 24.272C183.873 23.792 183.825 23.304 183.825 22.808ZM180.417 22.808C180.417 23.8 180.569 24.696 180.873 25.496C181.177 26.296 181.609 26.984 182.169 27.56C182.729 28.12 183.401 28.552 184.185 28.856C184.969 29.16 185.849 29.312 186.825 29.312C187.801 29.312 188.681 29.16 189.465 28.856C190.265 28.552 190.945 28.12 191.505 27.56C192.065 26.984 192.497 26.296 192.801 25.496C193.105 24.696 193.257 23.8 193.257 22.808C193.257 21.816 193.105 20.92 192.801 20.12C192.497 19.304 192.065 18.616 191.505 18.056C190.945 17.48 190.265 17.04 189.465 16.736C188.681 16.416 187.801 16.256 186.825 16.256C185.849 16.256 184.969 16.416 184.185 16.736C183.401 17.04 182.729 17.48 182.169 18.056C181.609 18.616 181.177 19.304 180.873 20.12C180.569 20.92 180.417 21.816 180.417 22.808ZM202.237 26.768C201.693 26.768 201.229 26.656 200.845 26.432C200.461 26.208 200.149 25.92 199.909 25.568C199.685 25.2 199.517 24.776 199.405 24.296C199.309 23.816 199.261 23.328 199.261 22.832C199.261 22.32 199.309 21.824 199.405 21.344C199.501 20.864 199.661 20.44 199.885 20.072C200.125 19.704 200.429 19.408 200.797 19.184C201.181 18.944 201.653 18.824 202.213 18.824C202.757 18.824 203.213 18.944 203.581 19.184C203.965 19.408 204.277 19.712 204.517 20.096C204.757 20.464 204.925 20.888 205.021 21.368C205.133 21.848 205.189 22.336 205.189 22.832C205.189 23.328 205.141 23.816 205.045 24.296C204.949 24.776 204.781 25.2 204.541 25.568C204.317 25.92 204.013 26.208 203.629 26.432C203.261 26.656 202.797 26.768 202.237 26.768ZM195.973 16.592V33.344H199.381V27.464H199.429C199.845 28.072 200.373 28.536 201.013 28.856C201.669 29.16 202.381 29.312 203.149 29.312C204.061 29.312 204.853 29.136 205.525 28.784C206.213 28.432 206.781 27.96 207.229 27.368C207.693 26.776 208.037 26.096 208.261 25.328C208.485 24.56 208.597 23.76 208.597 22.928C208.597 22.048 208.485 21.208 208.261 20.408C208.037 19.592 207.693 18.88 207.229 18.272C206.765 17.664 206.181 17.176 205.477 16.808C204.773 16.44 203.933 16.256 202.957 16.256C202.189 16.256 201.485 16.408 200.845 16.712C200.205 17.016 199.677 17.504 199.261 18.176H199.213V16.592H195.973Z" fill="#13CF8F"/>
</svg>
