<svg width="14" height="18" viewBox="0 0 14 18" fill="none" xmlns="http://www.w3.org/2000/svg">
<path d="M7.00016 0.666504C5.23205 0.666504 3.53636 1.36888 2.28612 2.61913C1.03588 3.86937 0.333496 5.56506 0.333496 7.33317C0.333496 11.8332 6.2085 16.9165 6.4585 17.1332C6.60944 17.2623 6.80153 17.3332 7.00016 17.3332C7.19879 17.3332 7.39088 17.2623 7.54183 17.1332C7.8335 16.9165 13.6668 11.8332 13.6668 7.33317C13.6668 5.56506 12.9644 3.86937 11.7142 2.61913C10.464 1.36888 8.76827 0.666504 7.00016 0.666504ZM7.00016 15.3748C5.22516 13.7082 2.00016 10.1165 2.00016 7.33317C2.00016 6.00709 2.52695 4.73532 3.46463 3.79764C4.40231 2.85996 5.67408 2.33317 7.00016 2.33317C8.32624 2.33317 9.59801 2.85996 10.5357 3.79764C11.4734 4.73532 12.0002 6.00709 12.0002 7.33317C12.0002 10.1165 8.77516 13.7165 7.00016 15.3748ZM7.00016 3.99984C6.34089 3.99984 5.69643 4.19533 5.14826 4.56161C4.6001 4.92788 4.17286 5.44847 3.92056 6.05756C3.66827 6.66665 3.60226 7.33687 3.73088 7.98347C3.8595 8.63008 4.17696 9.22402 4.64314 9.69019C5.10931 10.1564 5.70326 10.4738 6.34986 10.6025C6.99646 10.7311 7.66669 10.6651 8.27577 10.4128C8.88486 10.1605 9.40546 9.73324 9.77173 9.18507C10.138 8.63691 10.3335 7.99244 10.3335 7.33317C10.3335 6.44912 9.98231 5.60127 9.35718 4.97615C8.73206 4.35103 7.88422 3.99984 7.00016 3.99984ZM7.00016 8.99984C6.67053 8.99984 6.34829 8.90209 6.07421 8.71895C5.80013 8.53582 5.58651 8.27552 5.46036 7.97098C5.33422 7.66643 5.30121 7.33132 5.36552 7.00802C5.42983 6.68472 5.58856 6.38775 5.82165 6.15466C6.05474 5.92157 6.35171 5.76284 6.67501 5.69853C6.99831 5.63422 7.33342 5.66723 7.63797 5.79337C7.94251 5.91952 8.20281 6.13314 8.38594 6.40722C8.56908 6.6813 8.66683 7.00354 8.66683 7.33317C8.66683 7.7752 8.49123 8.19912 8.17867 8.51168C7.86611 8.82424 7.44219 8.99984 7.00016 8.99984Z" fill="#13CF8F"/>
</svg>
