<svg width="18" height="14" viewBox="0 0 18 14" fill="none" xmlns="http://www.w3.org/2000/svg">
<path d="M14.8332 0.333496H3.1665C2.50346 0.333496 1.86758 0.596888 1.39874 1.06573C0.929896 1.53457 0.666504 2.17045 0.666504 2.8335V11.1668C0.666504 11.8299 0.929896 12.4658 1.39874 12.9346C1.86758 13.4034 2.50346 13.6668 3.1665 13.6668H14.8332C15.4962 13.6668 16.1321 13.4034 16.6009 12.9346C17.0698 12.4658 17.3332 11.8299 17.3332 11.1668V2.8335C17.3332 2.17045 17.0698 1.53457 16.6009 1.06573C16.1321 0.596888 15.4962 0.333496 14.8332 0.333496ZM14.4915 2.00016L9.5915 6.90016C9.51404 6.97827 9.42187 7.04026 9.32032 7.08257C9.21877 7.12488 9.10985 7.14666 8.99984 7.14666C8.88983 7.14666 8.78091 7.12488 8.67936 7.08257C8.57781 7.04026 8.48564 6.97827 8.40817 6.90016L3.50817 2.00016H14.4915ZM15.6665 11.1668C15.6665 11.3878 15.5787 11.5998 15.4224 11.7561C15.2661 11.9124 15.0542 12.0002 14.8332 12.0002H3.1665C2.94549 12.0002 2.73353 11.9124 2.57725 11.7561C2.42097 11.5998 2.33317 11.3878 2.33317 11.1668V3.17516L7.23317 8.07516C7.70192 8.54333 8.33734 8.8063 8.99984 8.8063C9.66234 8.8063 10.2978 8.54333 10.7665 8.07516L15.6665 3.17516V11.1668Z" fill="#13CF8F"/>
</svg>
