<svg width="101" height="100" viewBox="0 0 101 100" fill="none" xmlns="http://www.w3.org/2000/svg">
<g clip-path="url(#clip0_738_15518)">
<path d="M67.1485 45.2014H66.771C65.509 45.2014 64.3221 45.6925 63.4295 46.5851L63.1064 46.9082C61.43 48.5845 58.6499 48.8597 56.6792 47.5448L55.4347 46.7146C53.4417 47.7592 50.7943 48.4006 47.8799 48.4006L51.0791 57.9981H52.6787C53.5616 57.9981 54.2782 58.7148 54.2782 59.5977V61.1973H64.0645L65.0755 59.1754C66.1488 57.0288 67.7724 55.1909 69.7703 53.8584C71.0867 52.9818 71.8737 51.5118 71.8737 49.9266C71.8737 47.3209 69.7527 45.2014 67.1485 45.2014Z" fill="#13CF8F"/>
<path d="M82.9781 32.6476L70.3525 31.3184L71.3075 35.1382C71.8258 37.2065 73.3422 38.8444 75.3657 39.5195C76.3462 39.8458 77.082 40.6408 77.3316 41.6405L77.4803 42.234C78.1537 44.9229 80.5579 46.8008 83.33 46.8008C84.5249 46.8008 85.6814 46.4505 86.6732 45.7883L88.6711 44.4558C89.5092 43.8975 90.485 43.6016 91.4943 43.6016C92.7836 43.6016 94.0633 43.2881 95.215 42.709C93.553 37.3376 88.8342 33.2635 82.9781 32.6476Z" fill="#13CF8F"/>
<path d="M23.8862 61.1971H41.3265C41.7248 60.8612 42.1423 60.5461 42.5774 60.2566C43.8939 59.3784 44.6809 57.9084 44.6809 56.3248C44.6809 53.7191 42.5614 51.5996 39.9557 51.5996H39.5782C38.3161 51.5996 37.1292 52.0907 36.2366 52.9833L35.9135 53.3064C34.2355 54.9827 31.4555 55.2595 29.4864 53.9414L28.2403 53.1128C26.2488 54.1573 23.6015 54.7988 20.687 54.7988L22.8193 61.1971H23.8862Z" fill="#13CF8F"/>
<path d="M97.4673 56.3984V46.9657C97.4673 38.755 91.3105 31.9167 83.1462 31.0577L66.3265 29.2854C64.519 26.9164 61.9516 25.3024 59.0771 24.6946V18.4513C59.0771 16.4423 57.4424 14.8091 55.4333 14.8091C54.16 14.8091 52.9635 15.4873 52.3109 16.5766L49.4588 21.3306C48.9405 21.2586 48.4175 21.2074 47.88 21.2074C47.3426 21.2074 46.8179 21.2586 46.3012 21.3322L43.4492 16.5798C42.7949 15.4873 41.5984 14.8091 40.3251 14.8091C38.3161 14.8091 36.6829 16.4423 36.6829 18.4513V24.6946C34.9377 25.0641 33.3046 25.7983 31.8841 26.8524V24.8497C31.8841 22.8406 30.2493 21.2074 28.2402 21.2074C26.967 21.2074 25.7705 21.8857 25.1178 22.975L22.2658 27.729C21.7475 27.657 21.2244 27.6058 20.687 27.6058C20.1495 27.6058 19.6249 27.657 19.1082 27.7306L16.2545 22.9766C15.6019 21.8857 14.4054 21.2074 13.1321 21.2074C11.123 21.2074 9.48985 22.8406 9.48985 24.8497V31.0929C6.36105 31.7551 3.57456 33.5931 1.76062 36.3156L0.666504 37.9568L9.48985 41.4855V44.4783C8.47091 45.6316 7.89025 46.9657 7.89025 48.4005C7.89025 52.6394 12.913 56.0065 19.5225 56.3633L20.6006 59.5976H11.0894C11.0894 57.8333 9.6546 56.3984 7.89025 56.3984H4.69107C2.92673 56.3984 1.49189 57.8333 1.49189 59.5976V81.9919C1.49189 83.7562 2.92673 85.1911 4.69107 85.1911H7.89025C9.6546 85.1911 11.0894 83.7562 11.0894 81.9919H46.2804C46.2804 83.7562 47.7153 85.1911 49.4796 85.1911H52.6788C54.4431 85.1911 55.878 83.7562 55.878 81.9919H91.069C91.069 83.7562 92.5038 85.1911 94.2681 85.1911H97.4673C99.2317 85.1911 100.667 83.7562 100.667 81.9919V59.5976C100.667 57.8333 99.2301 56.3984 97.4673 56.3984ZM59.0388 31.656C58.946 30.2707 58.6053 28.9559 58.0518 27.753C59.8546 28.0601 61.5213 28.8791 62.8378 30.1348L59.0388 31.656ZM47.88 46.8009C42.2239 46.8009 38.2825 44.2719 38.2825 42.0021C38.2825 39.7323 42.2239 37.2034 47.88 37.2034C53.5362 37.2034 57.4776 39.7323 57.4776 42.0021C57.4776 44.2719 53.5362 46.8009 47.88 46.8009ZM31.8457 38.0543C31.7529 36.6691 31.4122 35.3542 30.8588 34.1513C32.6615 34.4585 34.3283 35.2774 35.6448 36.5331L31.8457 38.0543ZM55.0542 18.2226C55.2589 17.8819 55.878 18.0515 55.878 18.4513V24.4066H55.7004C54.8078 23.5332 53.7665 22.815 52.6228 22.276L55.0542 18.2226ZM55.878 32.4046V35.7221C53.7009 34.6456 50.9336 34.0042 47.88 34.0042C44.8264 34.0042 42.0591 34.6456 39.8821 35.7221V32.4046C39.8821 27.9945 43.4699 24.4066 47.88 24.4066C52.2901 24.4066 55.878 27.9945 55.878 32.4046ZM40.7043 18.2242L43.1356 22.2776C41.9919 22.815 40.9522 23.5332 40.058 24.4066H39.8805V18.4513C39.8821 18.0515 40.4995 17.8787 40.7043 18.2242ZM37.7066 27.7546C37.1548 28.9575 36.8125 30.2723 36.7197 31.6576L32.9206 30.138C34.2371 28.8791 35.9039 28.0601 37.7066 27.7546ZM27.8611 24.621C28.0659 24.2803 28.6849 24.4498 28.6849 24.8497V30.3203L28.4178 30.7218C27.5444 29.8868 26.5367 29.1942 25.4314 28.6743L27.8611 24.621ZM28.6849 38.8029V42.1205C26.5079 41.044 23.7406 40.4025 20.687 40.4025C17.6334 40.4025 14.8661 41.044 12.689 42.1205V38.8029C12.689 34.3929 16.2769 30.805 20.687 30.805C25.097 30.805 28.6849 34.3929 28.6849 38.8029ZM13.5112 24.6226L15.9426 28.6759C14.7989 29.2134 13.7592 29.9316 12.865 30.805H12.689V24.8497C12.689 24.4498 13.3065 24.2771 13.5112 24.6226ZM10.5136 34.1529C9.96172 35.3558 9.61941 36.6707 9.52664 38.0559L5.72761 36.5363C7.04407 35.2774 8.71084 34.4585 10.5136 34.1529ZM11.0894 48.4005C11.0894 46.1307 15.0308 43.6017 20.687 43.6017C26.3431 43.6017 30.2845 46.1307 30.2845 48.4005C30.2845 50.6703 26.3431 53.1993 20.687 53.1993C15.0308 53.1993 11.0894 50.6703 11.0894 48.4005ZM22.8656 56.2785C28.9665 55.6482 33.4837 52.4187 33.4837 48.4005C33.4837 46.9657 32.9031 45.6316 31.8841 44.4783V41.4855L35.4672 40.0522C35.2257 40.6761 35.0833 41.3255 35.0833 42.0021C35.0833 46.241 40.106 49.6082 46.7155 49.9649L48.8798 56.4592C47.4017 56.7408 46.2788 58.0396 46.2788 59.5976H23.9709L22.8656 56.2785ZM46.2804 62.7968V65.996H11.0894V62.7968H46.2804ZM46.2804 69.1952V72.3943H11.0894V69.1952H46.2804ZM4.69107 81.9919V59.5976H7.89025L7.89345 81.9919H4.69107ZM11.0894 78.7927V75.5935H46.2804V78.7927H11.0894ZM49.4796 81.9919V59.5976H52.6788L52.682 81.9919H49.4796ZM55.878 62.7968H91.069V65.996H55.878V62.7968ZM55.878 69.1952H91.069V72.3943H55.878V69.1952ZM55.878 78.7927V75.5935H91.069V78.7927H55.878ZM91.069 59.5976H55.878C55.878 57.8333 54.4431 56.3984 52.6788 56.3984H52.2309L50.0587 49.8801C56.1595 49.2499 60.6767 46.0203 60.6767 42.0021C60.6767 40.5673 60.0961 39.2332 59.0771 38.0799V35.0871L65.7011 32.4366L82.8119 34.2377C89.343 34.9255 94.2681 40.3961 94.2681 46.9641V56.3984C92.5038 56.3984 91.069 57.8333 91.069 59.5976ZM94.2681 81.9919V59.5976H97.4673L97.4705 81.9919H94.2681Z" fill="#051833"/>
<path d="M43.081 32.4045C43.9645 32.4045 44.6806 31.6883 44.6806 30.8049C44.6806 29.9215 43.9645 29.2053 43.081 29.2053C42.1976 29.2053 41.4814 29.9215 41.4814 30.8049C41.4814 31.6883 42.1976 32.4045 43.081 32.4045Z" fill="#051833"/>
<path d="M44.6806 43.6018C45.5641 43.6018 46.2802 42.8856 46.2802 42.0022C46.2802 41.1187 45.5641 40.4026 44.6806 40.4026C43.7972 40.4026 43.0811 41.1187 43.0811 42.0022C43.0811 42.8856 43.7972 43.6018 44.6806 43.6018Z" fill="#051833"/>
<path d="M51.0791 43.6018C51.9625 43.6018 52.6787 42.8856 52.6787 42.0022C52.6787 41.1187 51.9625 40.4026 51.0791 40.4026C50.1957 40.4026 49.4795 41.1187 49.4795 42.0022C49.4795 42.8856 50.1957 43.6018 51.0791 43.6018Z" fill="#051833"/>
<path d="M52.6787 32.4045C53.5621 32.4045 54.2783 31.6883 54.2783 30.8049C54.2783 29.9215 53.5621 29.2053 52.6787 29.2053C51.7953 29.2053 51.0791 29.9215 51.0791 30.8049C51.0791 31.6883 51.7953 32.4045 52.6787 32.4045Z" fill="#051833"/>
<path d="M15.8882 38.8029C16.7716 38.8029 17.4878 38.0868 17.4878 37.2033C17.4878 36.3199 16.7716 35.6038 15.8882 35.6038C15.0047 35.6038 14.2886 36.3199 14.2886 37.2033C14.2886 38.0868 15.0047 38.8029 15.8882 38.8029Z" fill="#051833"/>
<path d="M17.4878 50C18.3712 50 19.0874 49.2838 19.0874 48.4004C19.0874 47.5169 18.3712 46.8008 17.4878 46.8008C16.6043 46.8008 15.8882 47.5169 15.8882 48.4004C15.8882 49.2838 16.6043 50 17.4878 50Z" fill="#051833"/>
<path d="M23.8862 50C24.7696 50 25.4858 49.2838 25.4858 48.4004C25.4858 47.5169 24.7696 46.8008 23.8862 46.8008C23.0028 46.8008 22.2866 47.5169 22.2866 48.4004C22.2866 49.2838 23.0028 50 23.8862 50Z" fill="#051833"/>
<path d="M25.4858 38.8029C26.3693 38.8029 27.0854 38.0868 27.0854 37.2033C27.0854 36.3199 26.3693 35.6038 25.4858 35.6038C24.6024 35.6038 23.8862 36.3199 23.8862 37.2033C23.8862 38.0868 24.6024 38.8029 25.4858 38.8029Z" fill="#051833"/>
</g>
<defs>
<clipPath id="clip0_738_15518">
<rect width="100" height="100" fill="white" transform="translate(0.666504)"/>
</clipPath>
</defs>
</svg>
