<svg width="101" height="100" viewBox="0 0 101 100" fill="none" xmlns="http://www.w3.org/2000/svg">
<path d="M25.3335 90.625H30.021C34.3351 90.625 37.8335 87.1266 37.8335 82.8125V78.125H33.146C28.8319 78.125 25.3335 81.6234 25.3335 85.9375V90.625Z" fill="#13CF8F"/>
<path d="M25.3335 90.625H20.646C16.3319 90.625 12.8335 87.1266 12.8335 82.8125V78.125H17.521C21.8351 78.125 25.3335 81.6234 25.3335 85.9375V90.625Z" fill="#13CF8F"/>
<path d="M25.3335 71.875H30.021C34.3351 71.875 37.8335 68.3766 37.8335 64.0625V59.375H33.146C28.8319 59.375 25.3335 62.8734 25.3335 67.1875V71.875Z" fill="#13CF8F"/>
<path d="M25.3335 71.875H20.646C16.3319 71.875 12.8335 68.3766 12.8335 64.0625V59.375H17.521C21.8351 59.375 25.3335 62.8734 25.3335 67.1875V71.875Z" fill="#13CF8F"/>
<path d="M25.3335 53.125H30.021C34.3351 53.125 37.8335 49.6266 37.8335 45.3125V40.625H33.146C28.8319 40.625 25.3335 44.1234 25.3335 48.4375V53.125Z" fill="#13CF8F"/>
<path d="M25.3335 53.125H20.646C16.3319 53.125 12.8335 49.6266 12.8335 45.3125V40.625H17.521C21.8351 40.625 25.3335 44.1234 25.3335 48.4375V53.125Z" fill="#13CF8F"/>
<path d="M35.3335 24.5312C34.9272 24.8359 34.4351 25 33.9272 25C32.6335 25 31.5835 23.95 31.5835 22.6562V22.4281C31.5835 22.2922 31.6069 22.1578 31.6304 22.025L31.6226 22.0234C28.0366 22.7328 25.3335 25.8937 25.3335 29.6875V34.375H30.021C34.3351 34.375 37.8335 30.8766 37.8335 26.5625V22.6562L35.3335 24.5312Z" fill="#13CF8F"/>
<path d="M25.3335 34.375H20.646C16.3319 34.375 12.8335 30.8766 12.8335 26.5625V21.875H17.521C21.8351 21.875 25.3335 25.3734 25.3335 29.6875V34.375Z" fill="#13CF8F"/>
<path d="M75.3335 90.625H70.646C66.3319 90.625 62.8335 87.1266 62.8335 82.8125V78.125H67.521C71.8351 78.125 75.3335 81.6234 75.3335 85.9375V90.625Z" fill="#13CF8F"/>
<path d="M75.3335 90.625H80.021C84.3351 90.625 87.8335 87.1266 87.8335 82.8125V78.125H83.146C78.8319 78.125 75.3335 81.6234 75.3335 85.9375V90.625Z" fill="#13CF8F"/>
<path d="M75.3335 71.875H70.646C66.3319 71.875 62.8335 68.3766 62.8335 64.0625V59.375H67.521C71.8351 59.375 75.3335 62.8734 75.3335 67.1875V71.875Z" fill="#13CF8F"/>
<path d="M75.3335 71.875H80.021C84.3351 71.875 87.8335 68.3766 87.8335 64.0625V59.375H83.146C78.8319 59.375 75.3335 62.8734 75.3335 67.1875V71.875Z" fill="#13CF8F"/>
<path d="M75.3335 53.125H70.646C66.3319 53.125 62.8335 49.6266 62.8335 45.3125V40.625H67.521C71.8351 40.625 75.3335 44.1234 75.3335 48.4375V53.125Z" fill="#13CF8F"/>
<path d="M75.3335 53.125H80.021C84.3351 53.125 87.8335 49.6266 87.8335 45.3125V40.625H83.146C78.8319 40.625 75.3335 44.1234 75.3335 48.4375V53.125Z" fill="#13CF8F"/>
<path d="M75.3335 34.375H80.021C84.3351 34.375 87.8335 30.8766 87.8335 26.5625V21.875H83.146C78.8319 21.875 75.3335 25.3734 75.3335 29.6875V34.375Z" fill="#13CF8F"/>
<path d="M69.0444 22.0234L69.0366 22.025C69.0601 22.1578 69.0835 22.2922 69.0835 22.4281V22.6562C69.0835 23.95 68.0335 25 66.7397 25C66.2319 25 65.7397 24.8359 65.3335 24.5312L62.8335 22.6562V26.5625C62.8335 30.8766 66.3319 34.375 70.646 34.375H75.3335V29.6875C75.3335 25.8937 72.6304 22.7328 69.0444 22.0234Z" fill="#13CF8F"/>
<path d="M55.021 32.8125V20.3125C56.7444 20.3125 58.146 18.9109 58.146 17.1875V10.9375C58.146 9.21406 56.7444 7.8125 55.021 7.8125H45.646C43.9226 7.8125 42.521 9.21406 42.521 10.9375V17.1875C42.521 18.9109 43.9226 20.3125 45.646 20.3125V32.8125C45.646 34.5359 47.0476 35.9375 48.771 35.9375H51.896C53.6194 35.9375 55.021 34.5359 55.021 32.8125ZM45.646 10.9375H55.021L55.0226 17.1875H45.646V10.9375ZM48.771 20.3125H51.896V32.8125H48.771V20.3125Z" fill="#051833"/>
<path d="M45.646 92.1875C45.646 93.9109 44.2444 95.3125 42.521 95.3125H8.146C6.42256 95.3125 5.021 93.9109 5.021 92.1875V10.9375C5.021 9.21406 6.42256 7.8125 8.146 7.8125H23.771V4.6875H8.146C4.69912 4.6875 1.896 7.49062 1.896 10.9375V92.1875C1.896 95.6344 4.69912 98.4375 8.146 98.4375H42.521C45.9679 98.4375 48.771 95.6344 48.771 92.1875V39.0625H45.646V92.1875Z" fill="#051833"/>
<path d="M26.5585 19.0266L30.8335 19.8813L30.4319 20.6828C30.1632 21.2219 30.021 21.825 30.021 22.4281V22.6562C30.021 24.8094 31.7741 26.5625 33.9272 26.5625C34.7663 26.5625 35.5976 26.2859 36.271 25.7812L41.896 21.5625L40.021 19.0625L34.3976 23.2797C33.9132 23.6438 33.146 23.2578 33.146 22.6562V22.4281C33.146 22.3078 33.1757 22.1859 33.2288 22.0781L35.4585 17.6187L27.1726 15.9609C27.0132 15.9297 26.896 15.7875 26.896 15.625C26.896 15.4625 27.0132 15.3203 27.1726 15.2875L35.8835 13.5453L30.1679 5.925C30.0726 5.79844 30.021 5.64219 30.021 5.41875C30.021 4.84375 30.7804 4.48906 31.221 4.85625L39.9585 12.1375L41.9585 9.7375L33.221 2.45625C32.5288 1.87969 31.6522 1.5625 30.7522 1.5625C28.6257 1.5625 26.896 3.29219 26.896 5.48594C26.896 6.31406 27.1694 7.13594 27.6679 7.8L30.4085 11.4547L26.5585 12.225C24.9429 12.5469 23.771 13.9781 23.771 15.625C23.771 17.2719 24.9429 18.7031 26.5585 19.0266Z" fill="#051833"/>
<path d="M20.021 83.125L18.146 85.625L25.3335 91.0156L32.521 85.625L30.646 83.125L25.3335 87.1094L20.021 83.125Z" fill="#051833"/>
<path d="M30.646 64.375L25.3335 68.3594L20.021 64.375L18.146 66.875L25.3335 72.2656L32.521 66.875L30.646 64.375Z" fill="#051833"/>
<path d="M30.646 45.625L25.3335 49.6094L20.021 45.625L18.146 48.125L25.3335 53.5156L32.521 48.125L30.646 45.625Z" fill="#051833"/>
<path d="M30.646 26.875L25.3335 30.8594L20.021 26.875L18.146 29.375L25.3335 34.7656L32.521 29.375L30.646 26.875Z" fill="#051833"/>
<path d="M69.446 4.85625C69.8882 4.49063 70.646 4.81719 70.646 5.48594C70.646 5.64375 70.5944 5.8 70.5007 5.925L64.7835 13.5469L73.4944 15.2891C73.6538 15.3203 73.771 15.4625 73.771 15.625C73.771 15.7875 73.6538 15.9297 73.4944 15.9625L65.2085 17.6203L67.4382 22.0781C67.4913 22.1859 67.521 22.3078 67.521 22.4281V22.6562C67.521 23.2578 66.7522 23.6406 66.271 23.2812L60.646 19.0625L58.771 21.5625L64.3976 25.7828C65.0694 26.2859 65.9007 26.5625 66.7397 26.5625C68.8929 26.5625 70.646 24.8094 70.646 22.6562V22.4281C70.646 21.825 70.5038 21.2219 70.2335 20.6812L69.8335 19.8813L74.1085 19.0266C75.7241 18.7031 76.896 17.2719 76.896 15.625C76.896 13.9781 75.7241 12.5469 74.1085 12.2234L70.2585 11.4531L73.0007 7.79687C73.4976 7.13437 73.771 6.31406 73.771 5.41875C73.771 3.29219 72.0413 1.5625 69.9147 1.5625C69.0147 1.5625 68.1382 1.87969 67.446 2.45625L58.7085 9.7375L60.7085 12.1375L69.446 4.85625Z" fill="#051833"/>
<path d="M92.521 4.6875H76.896V7.8125H92.521C94.2444 7.8125 95.646 9.21406 95.646 10.9375V92.1875C95.646 93.9109 94.2444 95.3125 92.521 95.3125H58.146C56.4226 95.3125 55.021 93.9109 55.021 92.1875V39.0625H51.896V92.1875C51.896 95.6344 54.6991 98.4375 58.146 98.4375H92.521C95.9679 98.4375 98.771 95.6344 98.771 92.1875V10.9375C98.771 7.49062 95.9679 4.6875 92.521 4.6875Z" fill="#051833"/>
<path d="M70.021 83.125L68.146 85.625L75.3335 91.0156L82.521 85.625L80.646 83.125L75.3335 87.1094L70.021 83.125Z" fill="#051833"/>
<path d="M80.646 64.375L75.3335 68.3594L70.021 64.375L68.146 66.875L75.3335 72.2656L82.521 66.875L80.646 64.375Z" fill="#051833"/>
<path d="M80.646 45.625L75.3335 49.6094L70.021 45.625L68.146 48.125L75.3335 53.5156L82.521 48.125L80.646 45.625Z" fill="#051833"/>
<path d="M80.646 26.875L75.3335 30.8594L70.021 26.875L68.146 29.375L75.3335 34.7656L82.521 29.375L80.646 26.875Z" fill="#051833"/>
</svg>
