<svg width="40" height="40" viewBox="0 0 40 40" fill="none" xmlns="http://www.w3.org/2000/svg">
<path d="M16.875 6.25C16.875 7.97312 18.2769 9.375 20 9.375C21.7231 9.375 23.125 7.97312 23.125 6.25H16.875Z" fill="#13CF8F"/>
<path d="M35 3.75H33.75V2.5C33.75 2.155 33.47 1.875 33.125 1.875C32.78 1.875 32.5 2.155 32.5 2.5V3.75H31.25V2.5C31.25 1.46625 32.0912 0.625 33.125 0.625C34.1587 0.625 35 1.46625 35 2.5V3.75Z" fill="#051833"/>
<path d="M8.75 3.75H7.5V2.5C7.5 2.155 7.22 1.875 6.875 1.875C6.53 1.875 6.25 2.155 6.25 2.5V3.75H5V2.5C5 1.46625 5.84125 0.625 6.875 0.625C7.90875 0.625 8.75 1.46625 8.75 2.5V3.75Z" fill="#051833"/>
<path d="M20 39.3749C17.5881 39.3749 15.625 37.4118 15.625 34.9999C15.625 34.0586 15.9356 33.1268 16.5 32.3749L20 27.708L23.5 32.3755C24.0644 33.1268 24.375 34.0586 24.375 34.9999C24.375 37.4118 22.4119 39.3749 20 39.3749Z" fill="#13CF8F"/>
<path d="M33.1781 32.5563C32.9425 32.2431 32.6881 31.9331 32.4219 31.635L33.3544 30.8025C33.6437 31.1269 33.92 31.4638 34.1762 31.8044L33.1781 32.5563ZM6.83561 32.5381L5.83936 31.7838C6.09873 31.44 6.37561 31.1044 6.66248 30.7844L7.59248 31.6194C7.32998 31.9131 7.07436 32.2219 6.83561 32.5381ZM31.5919 30.7806C31.305 30.5094 31.0031 30.2469 30.6931 29.9994L31.4731 29.0231C31.81 29.2919 32.1387 29.5781 32.4506 29.8738L31.5919 30.7806ZM8.42498 30.7663L7.56686 29.8581C7.87623 29.565 8.20561 29.2794 8.54498 29.0094L9.32373 29.9869C9.01248 30.235 8.70998 30.4975 8.42498 30.7663ZM29.7319 29.2963C29.4031 29.075 29.0612 28.8663 28.7156 28.6744L29.3237 27.5819C29.6994 27.7906 30.07 28.0181 30.4281 28.2575L29.7319 29.2963ZM10.2869 29.2838L9.59248 28.245C9.9506 28.005 10.3231 27.7781 10.6987 27.57L11.3044 28.6638C10.9587 28.8544 10.6162 29.0631 10.2869 29.2838ZM27.6506 28.1381C27.2894 27.975 26.9175 27.8256 26.545 27.6931L26.9637 26.515C27.3681 26.6588 27.7719 26.8213 28.1644 26.9988L27.6506 28.1381ZM12.3687 28.13L11.8562 26.99C12.2487 26.8137 12.6525 26.6519 13.0581 26.5081L13.4756 27.6863C13.1019 27.8188 12.7294 27.9675 12.3687 28.13ZM25.4081 27.3431C25.0281 27.2438 24.6369 27.1581 24.2444 27.0887L24.4619 25.8581C24.8875 25.9325 25.3125 26.0262 25.7256 26.1344L25.4081 27.3431ZM14.6131 27.3369L14.2981 26.1269C14.7175 26.0175 15.1431 25.925 15.5631 25.8519L15.7781 27.0838C15.3912 27.1506 14.9994 27.2362 14.6131 27.3369ZM23.065 26.9319C22.6662 26.8963 22.2669 26.8775 21.8762 26.8756L21.8825 25.6256C22.3075 25.6275 22.7431 25.6481 23.1762 25.6869L23.065 26.9319ZM16.9606 26.93L16.8494 25.685C17.2737 25.6469 17.7087 25.6269 18.1444 25.625L18.1494 26.875C17.7494 26.8769 17.3494 26.895 16.9606 26.93ZM20.635 26.875H19.3912V25.625H20.635V26.875Z" fill="#051833"/>
<path d="M35.3436 31.28C35.1067 30.9544 34.8567 30.6344 34.5986 30.3281L35.5555 29.5238C35.8317 29.8519 36.1005 30.1956 36.3542 30.5444L35.3436 31.28ZM33.7886 29.4338C33.5067 29.1444 33.2123 28.8638 32.9148 28.5994L33.7448 27.6644C34.0648 27.9488 34.3811 28.2506 34.6836 28.5613L33.7886 29.4338ZM31.9836 27.8294C31.6611 27.5825 31.3292 27.3475 30.9986 27.13L31.6848 26.085C32.0411 26.3194 32.3973 26.5719 32.743 26.8369L31.9836 27.8294ZM29.9636 26.5031C29.6192 26.31 29.258 26.125 28.8892 25.9525L29.4192 24.82C29.8155 25.0056 30.2048 25.205 30.5755 25.4131L29.9636 26.5031ZM27.7786 25.48C27.3992 25.335 27.0142 25.2038 26.6348 25.0888L26.9948 23.8925C27.4036 24.015 27.8167 24.1569 28.2242 24.3119L27.7786 25.48ZM25.4661 24.7806C25.0723 24.6925 24.6717 24.6181 24.2773 24.5594L24.463 23.3225C24.8873 23.3869 25.3161 23.4663 25.7386 23.5613L25.4661 24.7806Z" fill="#051833"/>
<path d="M4.64984 31.2882L3.63672 30.5557C3.89047 30.2045 4.15984 29.8607 4.43734 29.5307L5.39297 30.3363C5.13609 30.642 4.88547 30.9626 4.64984 31.2882ZM6.20547 29.4401L5.30922 28.5688C5.61047 28.2588 5.92672 27.957 6.24859 27.6707L7.07859 28.6057C6.77984 28.8713 6.48547 29.1526 6.20547 29.4401ZM8.00922 27.8357L7.24859 26.8432C7.59172 26.5807 7.94734 26.3276 8.30609 26.0913L8.99359 27.1351C8.65984 27.3557 8.32859 27.5913 8.00922 27.8357ZM10.0273 26.507L9.41672 25.4157C9.79422 25.2045 10.1836 25.0051 10.5717 24.8232L11.103 25.9551C10.7411 26.1245 10.3792 26.3101 10.0273 26.507ZM12.2136 25.4826L11.7655 24.3157C12.1692 24.1607 12.583 24.0188 12.9955 23.8951L13.3555 25.0913C12.973 25.2076 12.5886 25.3388 12.2136 25.4826ZM14.5248 24.7832L14.2505 23.5638C14.6692 23.4701 15.098 23.3895 15.5261 23.3245L15.7117 24.5613C15.3136 24.6213 14.9142 24.6957 14.5248 24.7832Z" fill="#051833"/>
<path d="M36.6363 14.375L37.5738 12.5L36.6363 10.625H35V6.25H33.75V10.625H32.5V6.25H31.25V10.625H27.9331L26.8188 7.6525C26.3638 6.44 25.1875 5.625 23.8925 5.625H16.1075C14.8125 5.625 13.6363 6.44 13.1806 7.6525L12.0669 10.625H8.75002V6.25H7.50002V10.625H6.25002V6.25H5.00002V10.625H3.36377L2.42627 12.5L3.36377 14.375H7.79064L5.29064 18.125H5.00002C4.31064 18.125 3.75002 18.6856 3.75002 19.375V20.625C3.75002 21.3144 4.31064 21.875 5.00002 21.875H10C10.6894 21.875 11.25 21.3144 11.25 20.625V19.375C11.25 18.8469 10.9194 18.3969 10.4556 18.2137L12.5088 14.9794C13.7994 16.8231 15.85 17.9763 18.125 18.1094V20.625C17.0913 20.625 16.25 21.4663 16.25 22.5V24.375H23.75V22.5C23.75 21.4663 22.9088 20.625 21.875 20.625V18.1094C24.15 17.9763 26.2 16.8231 27.4913 14.9794L29.5444 18.2137C29.0806 18.3969 28.75 18.8469 28.75 19.375V20.625C28.75 21.3144 29.3106 21.875 30 21.875H35C35.6894 21.875 36.25 21.3144 36.25 20.625V19.375C36.25 18.6856 35.6894 18.125 35 18.125H34.7094L32.2094 14.375H36.6363ZM14.3519 8.09187C14.6244 7.36375 15.33 6.875 16.1075 6.875H23.8919C24.6694 6.875 25.375 7.36375 25.6481 8.09187L26.5981 10.625H13.4019L14.3519 8.09187ZM3.82377 12.5L4.13627 11.875H35.8638L36.1763 12.5L35.8638 13.125H4.13627L3.82377 12.5ZM9.29252 14.375H11.4113L9.03064 18.125H6.79252L9.29252 14.375ZM10 20.625H5.00002V19.375H10V20.625ZM22.5 22.5V23.125H17.5V22.5C17.5 22.155 17.78 21.875 18.125 21.875H21.875C22.22 21.875 22.5 22.155 22.5 22.5ZM19.375 20.625V18.125H20.625V20.625H19.375ZM21.4325 16.875H18.5675C16.5819 16.875 14.7731 15.9344 13.6244 14.375H26.375C25.2269 15.9344 23.4181 16.875 21.4325 16.875ZM35.0013 20.625H30V19.375H35L35.0013 20.625ZM33.2075 18.125H30.9688L28.5881 14.375H30.7069L33.2075 18.125Z" fill="#051833"/>
<path d="M30 39.3749C28.6212 39.3749 27.5 38.2536 27.5 36.8749C27.5 36.3386 27.6775 35.8061 27.9994 35.3761L30 32.708L32 35.3755C32.3225 35.8061 32.5 36.3386 32.5 36.8749C32.5 38.2536 31.3787 39.3749 30 39.3749Z" fill="#13CF8F"/>
<path d="M11.875 38.1249C10.4962 38.1249 9.375 37.0036 9.375 35.6249C9.375 35.0886 9.5525 34.5561 9.87437 34.1261L11.875 31.458L13.875 34.1255C14.1975 34.5561 14.375 35.0886 14.375 35.6249C14.375 37.0036 13.2537 38.1249 11.875 38.1249Z" fill="#13CF8F"/>
<path d="M37.1337 6.875H29.1162L27.2412 5L29.1162 3.125H37.1337L39.0087 5L37.1337 6.875Z" fill="#13CF8F"/>
<path d="M10.8837 6.875H2.86621L0.991211 5L2.86621 3.125H10.8837L12.7587 5L10.8837 6.875Z" fill="#13CF8F"/>
</svg>
