<svg width="40" height="40" viewBox="0 0 40 40" fill="none" xmlns="http://www.w3.org/2000/svg">
<path d="M4.51611 25.8064V34.1935C4.51611 35.6187 5.6716 36.7741 7.09676 36.7741H32.9032C34.3284 36.7741 35.4839 35.6187 35.4839 34.1935V25.8064H4.51611Z" fill="#13CF8F"/>
<path d="M38.7097 19.3548H30.3581C30.389 18.9187 30.4413 18.4865 30.5335 18.0645H31.5084C32.8865 18.0645 34.1187 17.2561 34.6761 16.02C36.2161 15.5271 37.2974 14.1471 37.4097 12.5355L37.9865 11.9587C38.4529 11.4916 38.7097 10.8716 38.7097 10.2123C38.7097 9.59355 38.4729 9.03355 38.0955 8.6C38.4865 8.15032 38.7097 7.58774 38.7097 6.98645C38.7097 5.62387 37.6013 4.51613 36.24 4.51613H35.3994L34.8387 3.67548V2.81871C34.8387 1.26452 33.5742 0 32.02 0C30.7239 0 29.5994 0.878064 29.2858 2.13548L29.0955 2.89613C28.8568 3.13677 28.6439 3.39548 28.4458 3.66258L28.2194 3.43613C27.6677 2.88452 26.9348 2.58065 26.1548 2.58065C24.8974 2.58065 23.7839 3.38258 23.3852 4.57677L23.371 4.62129L22.8568 4.74968C21.5542 5.07548 20.6452 6.23936 20.6452 7.58129V7.74194H20.5342C20.3548 7.74194 20.1794 7.76774 20.0058 7.80581C19.8316 7.76645 19.6516 7.74194 19.4658 7.74194H19.3548V7.58129C19.3548 6.23936 18.4458 5.07484 17.1432 4.74968L16.629 4.62129L16.6142 4.57613C16.2161 3.38258 15.1026 2.58065 13.8452 2.58065C13.0652 2.58065 12.3323 2.88452 11.7813 3.43548L11.5548 3.66194C11.3568 3.39484 11.1439 3.13548 10.9052 2.89548L10.7142 2.13548C10.4006 0.878064 9.27613 0 7.98 0C6.42581 0 5.16129 1.26452 5.16129 2.81871V3.67548L4.60129 4.51613H3.76C2.39871 4.51613 1.29032 5.62387 1.29032 6.98645C1.29032 7.58774 1.5129 8.15032 1.90452 8.6C1.5271 9.03355 1.29032 9.5929 1.29032 10.2123C1.29032 10.8716 1.5471 11.4916 2.01355 11.9587L2.59032 12.5355C2.70258 14.1477 3.78452 15.5271 5.32387 16.02C5.88129 17.2561 7.11355 18.0645 8.49161 18.0645H9.46645C9.55871 18.4865 9.61097 18.9187 9.64194 19.3548H1.29032C0.57871 19.3548 0 19.9335 0 20.6452V23.2258C0 23.9374 0.57871 24.5161 1.29032 24.5161V34.8387C1.29032 37.6845 3.60581 40 6.45161 40H33.5484C36.3942 40 38.7097 37.6845 38.7097 34.8387V24.5161C39.4213 24.5161 40 23.9374 40 23.2258V20.6452C40 19.9335 39.4213 19.3548 38.7097 19.3548ZM27.7065 19.3548C27.6768 18.8761 27.6206 18.4026 27.5258 17.9387L28.3871 16.6471L29.2484 17.9387C29.1535 18.4026 29.0974 18.8761 29.0677 19.3548H27.7065ZM13.7594 18.0645H14.7342C16.1123 18.0645 17.3445 17.2561 17.9019 16.02C18.7884 15.7361 19.5148 15.1523 20.0006 14.4052C20.4858 15.1523 21.2116 15.7361 22.0981 16.02C22.6555 17.2561 23.8877 18.0645 25.2658 18.0645H26.2406C26.3329 18.4865 26.3852 18.9187 26.4161 19.3548H13.5839C13.6148 18.9187 13.6671 18.4865 13.7594 18.0645ZM21.2123 11.9581C21.6787 11.4916 21.9355 10.8716 21.9355 10.2123C21.9355 9.96968 21.8897 9.74 21.8239 9.51871L23.0303 10.3226H23.2258C24.449 10.3226 25.5097 11.151 25.8064 12.3387L25.9129 12.7581L26.4594 12.94C27.2265 13.1961 27.7419 13.9116 27.7419 14.7206C27.7419 15.0923 27.6329 15.4523 27.4271 15.7613L27.0516 16.3245C26.431 14.7019 25.4123 13.24 24.0406 12.0968L23.6394 11.7619L22.8129 12.7529L23.2142 13.0877C24.411 14.0852 25.3 15.3594 25.8432 16.7735H25.2658C24.3239 16.7735 23.491 16.1729 23.1923 15.2794L23.0806 14.9432L22.66 14.8387C21.5548 14.5626 20.7697 13.6206 20.6658 12.5045L21.2123 11.9581ZM37.0742 11.0465L36.129 11.9903V12.2581C36.129 13.4813 35.3006 14.5426 34.1142 14.8387L33.6935 14.9439L33.5819 15.28C33.2832 16.1735 32.4503 16.7742 31.5084 16.7742H30.931C31.4742 15.3594 32.3632 14.0852 33.56 13.0884L33.9613 12.7535L33.1348 11.7626L32.7335 12.0974C31.3619 13.2406 30.3439 14.7019 29.7226 16.3252L29.3471 15.7619C29.1413 15.4523 29.0323 15.0923 29.0323 14.7206C29.0323 13.9116 29.5477 13.1961 30.3148 12.9406L30.8613 12.7587L30.9684 12.3374C31.2645 11.151 32.3252 10.3226 33.5484 10.3226H33.7439L35.3819 9.23097C35.5768 9.10065 35.8026 9.03226 36.0361 9.03226H36.2394C36.8903 9.03226 37.4194 9.56129 37.4194 10.2123C37.4194 10.5271 37.2968 10.8232 37.0742 11.0465ZM37.4194 6.98645C37.4194 7.30129 37.2968 7.59806 37.0742 7.82L37.0155 7.87871C36.7697 7.79677 36.5123 7.74194 36.24 7.74194H36.0368C36.02 7.74194 36.0032 7.74516 35.9865 7.74581C36.0768 7.42194 36.129 7.08452 36.129 6.73871C36.129 6.42129 36.0813 6.10968 36.0026 5.80645H36.24C36.8903 5.80645 37.4194 6.33548 37.4194 6.98645ZM30.0219 3.7929L30.2594 3.55613L30.5368 2.44839C30.7077 1.76645 31.3174 1.29032 32.02 1.29032C32.8626 1.29032 33.5484 1.97613 33.5484 2.81871V4.06645L34.4297 5.38839C34.6974 5.78968 34.8387 6.25677 34.8387 6.73871C34.8387 7.55484 34.4335 8.31161 33.7542 8.76452L33.3452 9.03742C32.5181 9.07936 31.7503 9.37742 31.1271 9.86065L32.2432 4.65097L30.9819 4.38064L29.3581 11.9594C28.9729 12.1748 28.6471 12.4703 28.3871 12.8148C28.0581 12.38 27.6181 12.031 27.0968 11.811V10.8574C27.0968 9.8529 27.4877 8.90839 28.1981 8.19806L28.3871 8.00903V7.74194C28.3871 6.25032 28.9677 4.84774 30.0219 3.7929ZM23.169 6.00194L24.371 5.70129L24.609 4.98516C24.8316 4.31871 25.4529 3.87097 26.1548 3.87097C26.5903 3.87097 26.9994 4.04065 27.3065 4.34774L27.7606 4.80194C27.3665 5.6329 27.1368 6.53806 27.1019 7.47935C26.9561 7.64129 26.8258 7.81355 26.7032 7.99097L25.6652 6.69355L24.6568 7.5L26.0671 9.26258C25.9806 9.52258 25.9148 9.78903 25.8723 10.0626C25.2123 9.46452 24.3606 9.08516 23.4284 9.03742L22.1077 8.15677C22.0523 8.12 21.9929 8.09161 21.9348 8.05935V7.58193C21.9355 6.8329 22.4426 6.18323 23.169 6.00194ZM20.6452 10.2123C20.6452 10.5271 20.5226 10.8239 20.3 11.0465L19.3548 11.9903V12.2581C19.3548 13.4813 18.5265 14.5426 17.34 14.8387L16.9194 14.9439L16.8077 15.28C16.509 16.1735 15.6761 16.7742 14.7342 16.7742H14.1568C14.7 15.3594 15.589 14.0852 16.7858 13.0884L17.1871 12.7535L16.3606 11.7626L15.9594 12.0974C14.5877 13.2406 13.5697 14.7019 12.9484 16.3252L12.5729 15.7619C12.3671 15.4523 12.2581 15.0923 12.2581 14.7206C12.2581 13.9116 12.7735 13.1961 13.5406 12.9406L14.0871 12.7587L14.1942 12.3374C14.4903 11.151 15.551 10.3226 16.7742 10.3226H16.9697L18.6077 9.23097C18.8026 9.10065 19.0284 9.03226 19.2619 9.03226H19.4652C20.1161 9.03226 20.6452 9.56129 20.6452 10.2123ZM12.6935 4.34774C13.0006 4.04065 13.4097 3.87097 13.8452 3.87097C14.5471 3.87097 15.1684 4.31871 15.3903 4.98387L15.629 5.70129L16.831 6.00194C17.5574 6.18323 18.0645 6.8329 18.0645 7.58129V8.05871C18.0065 8.09097 17.9471 8.11935 17.8916 8.15613L16.571 9.03677C15.6387 9.08387 14.7865 9.46387 14.1271 10.0613C14.0839 9.78839 14.0181 9.52194 13.9323 9.26194L15.3426 7.49935L14.3342 6.6929L13.2961 7.99032C13.1735 7.81355 13.0432 7.64129 12.8974 7.47871C12.8626 6.53742 12.6329 5.63226 12.2387 4.80129L12.6935 4.34774ZM5.57032 5.38839L6.45161 4.06645V2.81871C6.45161 1.97613 7.13677 1.29032 7.98 1.29032C8.68258 1.29032 9.29226 1.76645 9.46323 2.44839L9.74064 3.55613L9.97742 3.79226C11.0323 4.84774 11.6129 6.25032 11.6129 7.74194V8.00903L11.8019 8.19806C12.5123 8.90839 12.9032 9.8529 12.9032 10.8574V11.811C12.3819 12.0316 11.9419 12.38 11.6129 12.8148C11.3529 12.4703 11.0271 12.1755 10.6419 11.9594L9.01806 4.38129L7.75677 4.65161L8.87355 9.86129C8.24968 9.37742 7.48194 9.07936 6.65548 9.03742L6.24645 8.76452C5.56645 8.31161 5.16129 7.55484 5.16129 6.73871C5.16129 6.25677 5.30258 5.78968 5.57032 5.38839ZM3.76 5.80645H3.99742C3.91871 6.10968 3.87097 6.42129 3.87097 6.73871C3.87097 7.08452 3.92323 7.42129 4.01355 7.74516C3.99677 7.74516 3.98065 7.74194 3.96387 7.74194H3.76C3.4871 7.74194 3.22968 7.79677 2.98452 7.87871L2.92581 7.82064C2.70323 7.59742 2.58065 7.30129 2.58065 6.98645C2.58065 6.33548 3.10968 5.80645 3.76 5.80645ZM8.49161 16.7742C7.54968 16.7742 6.71677 16.1735 6.41806 15.28L6.30645 14.9439L5.88581 14.8387C4.69935 14.5426 3.87097 13.4813 3.87097 12.2581V11.9903L2.92581 11.0465C2.70323 10.8232 2.58065 10.5271 2.58065 10.2123C2.58065 9.56129 3.10968 9.03226 3.76 9.03226H3.96323C4.19677 9.03226 4.42323 9.10065 4.61806 9.23032L6.06 10.1916L6.09355 10.2142L6.25613 10.3226H6.45161C7.67484 10.3226 8.73548 11.151 9.03226 12.3387L9.13871 12.7581L9.68516 12.94C10.4523 13.1961 10.9677 13.9116 10.9677 14.7206C10.9677 15.0923 10.8587 15.4523 10.6529 15.7613L10.2774 16.3245C9.65677 14.7019 8.63806 13.24 7.26645 12.0968L6.86516 11.7619L6.03871 12.7529L6.44 13.0877C7.63677 14.0852 8.52581 15.3594 9.06903 16.7735H8.49161V16.7742ZM10.7516 17.9387L11.6129 16.6471L12.4742 17.9387C12.3794 18.4026 12.3232 18.8761 12.2935 19.3548H10.9323C10.9026 18.8761 10.8465 18.4026 10.7516 17.9387ZM37.4194 34.8387C37.4194 36.9735 35.6832 38.7097 33.5484 38.7097H6.45161C4.31677 38.7097 2.58065 36.9735 2.58065 34.8387V24.5161H3.87097V34.1935C3.87097 35.9723 5.31806 37.4194 7.09677 37.4194H32.9032C34.6819 37.4194 36.129 35.9723 36.129 34.1935V24.5161H37.4194V34.8387ZM5.16129 24.5161H34.8387V34.1935C34.8387 35.2606 33.9703 36.129 32.9032 36.129H7.09677C6.02968 36.129 5.16129 35.2606 5.16129 34.1935V24.5161ZM1.29032 23.2258V20.6452H38.7097L38.7103 23.2258H1.29032Z" fill="#051833"/>
<path d="M8.03039 32.8354C9.84264 31.929 10.9678 30.1077 10.9678 28.0825V25.8064H9.67748V28.0825C9.67748 29.6161 8.82523 30.9954 7.45361 31.6812L8.03039 32.8354Z" fill="#051833"/>
<path d="M15.1957 34.7709L15.7731 33.6167C14.4009 32.9303 13.5486 31.5516 13.5486 30.018V29.9851C14.8086 31.0219 16.4086 31.6129 18.0648 31.6129V30.3225C16.3138 30.3225 14.6448 29.5109 13.5486 28.1522V25.8064H12.2583V30.018C12.2583 32.0432 13.3835 33.8645 15.1957 34.7709Z" fill="#051833"/>
<path d="M31.9696 32.8354L32.5471 31.6812C31.1748 30.9948 30.3225 29.6161 30.3225 28.0825V25.8064H29.0322V28.0825C29.0322 30.1077 30.1574 31.929 31.9696 32.8354Z" fill="#051833"/>
<path d="M21.9355 30.3225V31.6129C23.5917 31.6129 25.1917 31.0219 26.4517 29.9851V30.018C26.4517 31.5516 25.5994 32.9309 24.2278 33.6167L24.8052 34.7709C26.6168 33.8645 27.742 32.0432 27.742 30.018V25.8064H26.4517V28.1522C25.3556 29.5109 23.6865 30.3225 21.9355 30.3225Z" fill="#051833"/>
<path d="M7.09682 29.6775C7.45313 29.6775 7.74198 29.3887 7.74198 29.0324C7.74198 28.6761 7.45313 28.3872 7.09682 28.3872C6.74051 28.3872 6.45166 28.6761 6.45166 29.0324C6.45166 29.3887 6.74051 29.6775 7.09682 29.6775Z" fill="#051833"/>
<path d="M9.67739 34.8386C10.0337 34.8386 10.3226 34.5498 10.3226 34.1935C10.3226 33.8372 10.0337 33.5483 9.67739 33.5483C9.32108 33.5483 9.03223 33.8372 9.03223 34.1935C9.03223 34.5498 9.32108 34.8386 9.67739 34.8386Z" fill="#051833"/>
<path d="M32.9035 29.6775C33.2598 29.6775 33.5486 29.3887 33.5486 29.0324C33.5486 28.6761 33.2598 28.3872 32.9035 28.3872C32.5471 28.3872 32.2583 28.6761 32.2583 29.0324C32.2583 29.3887 32.5471 29.6775 32.9035 29.6775Z" fill="#051833"/>
<path d="M30.3224 34.8386C30.6787 34.8386 30.9676 34.5498 30.9676 34.1935C30.9676 33.8372 30.6787 33.5483 30.3224 33.5483C29.9661 33.5483 29.6772 33.8372 29.6772 34.1935C29.6772 34.5498 29.9661 34.8386 30.3224 34.8386Z" fill="#051833"/>
<path d="M18.7096 34.8386C19.0659 34.8386 19.3548 34.5498 19.3548 34.1935C19.3548 33.8372 19.0659 33.5483 18.7096 33.5483C18.3533 33.5483 18.0645 33.8372 18.0645 34.1935C18.0645 34.5498 18.3533 34.8386 18.7096 34.8386Z" fill="#051833"/>
<path d="M21.2902 29.6775C21.6465 29.6775 21.9354 29.3887 21.9354 29.0324C21.9354 28.6761 21.6465 28.3872 21.2902 28.3872C20.9339 28.3872 20.645 28.6761 20.645 29.0324C20.645 29.3887 20.9339 29.6775 21.2902 29.6775Z" fill="#051833"/>
</svg>
