<svg width="40" height="40" viewBox="0 0 40 40" fill="none" xmlns="http://www.w3.org/2000/svg">
<path d="M12.2217 0C7.27756 0 3.25586 4.0217 3.25586 8.96588V13.4488H3.89628C3.89628 12.3875 4.75622 11.5276 5.81754 11.5276H6.45796V10.2517C6.45796 9.48403 6.94922 8.80202 7.67782 8.55936C8.12687 8.40926 8.61688 8.4446 9.04028 8.65599L9.79515 9.03311C10.5491 9.41023 11.3796 9.6063 12.2217 9.6063C13.0639 9.6063 13.8944 9.41023 14.6483 9.03373L15.4032 8.65661C15.8266 8.44522 16.3166 8.40989 16.7657 8.55999C17.4943 8.80202 17.9855 9.48403 17.9855 10.2517V11.5276H18.6259C19.6873 11.5276 20.5472 12.3875 20.5472 13.4488H21.1876V8.96588C21.1876 4.0217 17.1659 0 12.2217 0Z" fill="#13CF8F"/>
<path d="M38.479 16.6509H39.7598V17.9317H38.479V16.6509Z" fill="#051833"/>
<path d="M10.3004 11.5276C10.3004 11.8813 10.0136 12.1681 9.65995 12.1681C9.30628 12.1681 9.01953 11.8813 9.01953 11.5276C9.01953 11.174 9.30628 10.8872 9.65995 10.8872C10.0136 10.8872 10.3004 11.174 10.3004 11.5276Z" fill="#051833"/>
<path d="M15.4239 11.5276C15.4239 11.8813 15.1372 12.1681 14.7835 12.1681C14.4298 12.1681 14.1431 11.8813 14.1431 11.5276C14.1431 11.174 14.4298 10.8872 14.7835 10.8872C15.1372 10.8872 15.4239 11.174 15.4239 11.5276Z" fill="#051833"/>
<path d="M12.2218 16.0106C11.5154 16.0106 10.941 15.4361 10.941 14.7297H9.66016C9.66016 16.1425 10.809 17.2914 12.2218 17.2914C13.6346 17.2914 14.7835 16.1425 14.7835 14.7297H13.5027C13.5027 15.4361 12.9282 16.0106 12.2218 16.0106Z" fill="#051833"/>
<path d="M32.3192 16.651L31.4343 18.4212L30.5493 16.651H27.3735L24.9904 11.0902L22.6651 17.2914H17.7594C17.9933 16.8893 18.1884 16.4621 18.3307 16.0106H18.6259C20.0387 16.0106 21.1876 14.8617 21.1876 13.4489C21.1876 12.0361 20.0387 10.8872 18.6259 10.8872V10.2518C18.6259 9.20675 17.9598 8.28208 16.9673 7.95155C16.3544 7.74673 15.6958 7.7927 15.1164 8.08351L14.3612 8.46063C13.0394 9.12169 11.4033 9.12169 10.0809 8.46063L9.32573 8.08351C8.74691 7.79395 8.08773 7.74735 7.4742 7.95155C6.48355 8.28271 5.81749 9.20675 5.81749 10.2518V10.8872C4.40469 10.8872 3.25581 12.0361 3.25581 13.4489C3.25581 14.8617 4.40469 16.0106 5.81749 16.0106H6.11268C6.59738 17.5475 7.64963 18.8315 9.01959 19.627V20.6855L2.99971 22.8835C1.23792 23.5271 0.0537109 25.2191 0.0537109 27.095V36.504H24.3897V33.6221H23.1088V35.2232H20.5471V29.4594H19.2663V35.2232H14.7358L14.157 27.6926L14.9966 26.2892L16.5092 27.2902L17.7478 22.8982L19.5406 23.5527L19.9796 22.3494L15.4238 20.6855V19.627C15.9247 19.3362 16.3844 18.9828 16.7872 18.5723H23.5526L25.0692 14.5268L26.5292 17.9318H29.7576L31.4343 21.285L33.111 17.9318H37.1981V16.651H32.3192ZM19.9067 13.4489C19.9067 14.1553 19.3323 14.7297 18.6259 14.7297H18.5934C18.6143 14.519 18.6259 14.3057 18.6259 14.0893V12.1681C19.3323 12.1681 19.9067 12.7425 19.9067 13.4489ZM5.81749 14.7297C5.11109 14.7297 4.53665 14.1553 4.53665 13.4489C4.53665 12.7425 5.11109 12.1681 5.81749 12.1681V14.0893C5.81749 14.3057 5.82906 14.519 5.85001 14.7297H5.81749ZM8.7122 25.2601L7.88541 22.4642L9.10152 22.0202L11.1419 23.6528L8.7122 25.2601ZM3.43843 24.0868L6.67962 22.9035L7.9739 27.2833L9.46019 26.2995L10.2864 27.6904L9.70754 35.2232H5.17707V28.819H3.89623V31.3807H1.33455V27.095C1.33455 25.7551 2.17979 24.5468 3.43843 24.0868ZM1.33455 32.6615H3.89623V35.2232H1.33455V32.6615ZM10.9921 35.2232L11.5337 28.1786H12.9096L13.4512 35.2232H10.9921ZM13.1395 26.8977H11.3058L10.5303 25.5931L12.1935 24.493L12.2217 24.5159L12.2645 24.4821L13.9272 25.5816L13.1395 26.8977ZM15.7531 25.2538L13.3155 23.6412L15.3425 22.0195L16.5414 22.4576L15.7531 25.2538ZM14.1429 21.3381L12.2217 22.8754L10.3004 21.3381V20.1983C10.9077 20.3891 11.5525 20.4935 12.2217 20.4935C12.8909 20.4935 13.536 20.3891 14.1429 20.1983V21.3381ZM12.2217 19.2127C9.39671 19.2127 7.09833 16.9143 7.09833 14.0893V10.2518C7.09833 9.75867 7.41291 9.32276 7.8804 9.16641C8.00017 9.1267 8.12181 9.10762 8.24346 9.10762C8.41826 9.10762 8.59243 9.14796 8.75379 9.22864L9.50897 9.60639C11.1848 10.4447 13.2586 10.4447 14.935 9.60639L15.6902 9.22926C15.9635 9.09292 16.2743 9.07041 16.563 9.16704C17.0305 9.32276 17.345 9.75867 17.345 10.2518V14.0893C17.345 16.9143 15.0467 19.2127 12.2217 19.2127Z" fill="#051833"/>
<path d="M28.8725 40L19.5135 30.0562C18.5285 29.0096 17.9854 27.6412 17.9854 26.2028V26.1149C17.9854 23.0154 20.5073 20.4934 23.6069 20.4934C25.1088 20.4934 26.5203 21.0782 27.582 22.1398L28.8725 23.4303L30.163 22.1398C31.2247 21.0782 32.6362 20.4934 34.1381 20.4934C37.2377 20.4934 39.7596 23.0154 39.7596 26.1149V26.2028C39.7596 27.6412 39.2165 29.0096 38.2308 30.0562L28.8725 40Z" fill="#13CF8F"/>
<path d="M30.7939 35.2232H26.9513V32.6615H24.3896V28.819H26.9513V26.2573H30.7939V28.819H33.3555V32.6615H30.7939V35.2232ZM28.2322 33.9423H29.513V31.3807H32.0747V30.0998H29.513V27.5382H28.2322V30.0998H25.6705V31.3807H28.2322V33.9423Z" fill="#051833"/>
</svg>
