<svg width="40" height="40" viewBox="0 0 40 40" fill="none" xmlns="http://www.w3.org/2000/svg">
<path d="M9.67718 10.3226C8.61008 10.3226 7.7417 9.45425 7.7417 8.38715C7.7417 7.32005 8.61008 6.45166 9.67718 6.45166C10.7443 6.45166 11.6127 7.32005 11.6127 8.38715C11.6127 9.45425 10.7443 10.3226 9.67718 10.3226Z" fill="#13CF8F"/>
<path d="M35.4838 27.0968C34.4167 27.0968 33.5483 26.2284 33.5483 25.1613C33.5483 24.0942 34.4167 23.2258 35.4838 23.2258C36.5509 23.2258 37.4193 24.0942 37.4193 25.1613C37.4193 26.2284 36.5509 27.0968 35.4838 27.0968Z" fill="#13CF8F"/>
<path d="M27.0968 12.9032C24.251 12.9032 21.9355 10.5877 21.9355 7.74186C21.9355 4.89605 24.251 2.58057 27.0968 2.58057C29.9426 2.58057 32.2581 4.89605 32.2581 7.74186C32.2581 10.5877 29.9426 12.9032 27.0968 12.9032Z" fill="#13CF8F"/>
<path d="M23.8711 40C21.3808 40 19.355 37.9736 19.355 35.4839C19.355 32.9942 21.3808 30.9678 23.8711 30.9678C26.3614 30.9678 28.3872 32.9942 28.3872 35.4839C28.3872 37.9736 26.3614 40 23.8711 40ZM23.8711 34.1936C23.1595 34.1936 22.5808 34.7723 22.5808 35.4839C22.5808 36.1955 23.1595 36.7742 23.8711 36.7742C24.5827 36.7742 25.1614 36.1955 25.1614 35.4839C25.1614 34.7723 24.5827 34.1936 23.8711 34.1936Z" fill="#13CF8F"/>
<path d="M8.38723 40C5.8969 40 3.87109 37.9736 3.87109 35.4839C3.87109 32.9942 5.8969 30.9678 8.38723 30.9678C10.8776 30.9678 12.9034 32.9942 12.9034 35.4839C12.9034 37.9736 10.8776 40 8.38723 40ZM8.38723 34.1936C7.67561 34.1936 7.0969 34.7723 7.0969 35.4839C7.0969 36.1955 7.67561 36.7742 8.38723 36.7742C9.09884 36.7742 9.67755 36.1955 9.67755 35.4839C9.67755 34.7723 9.09884 34.1936 8.38723 34.1936Z" fill="#13CF8F"/>
<path d="M12.8517 36.1292C12.7859 36.5846 12.653 37.0182 12.4614 37.4195H19.7969C19.6053 37.0182 19.4724 36.5846 19.4066 36.1292H12.8517Z" fill="#051833"/>
<path d="M36.1006 20.6923C36.1103 20.4613 36.129 20.2303 36.129 20C36.129 17.0594 35.3265 14.2006 33.8194 11.6968C34.4794 10.5355 34.8387 9.21097 34.8387 7.86839V7.74194C34.8387 3.4729 31.3658 0 27.0968 0C24.2335 0 21.7335 1.56645 20.3942 3.88387C17.8929 3.82645 15.3535 4.36 13.0865 5.43419C12.2574 4.47871 11.0381 3.87097 9.67742 3.87097C7.1871 3.87097 5.16129 5.89742 5.16129 8.3871C5.16129 9.35871 5.48258 10.3206 6.06452 11.0961L6.33161 11.4523C4.84064 13.8323 4.00581 16.5413 3.89484 19.3548H2.58065C1.86903 19.3548 1.29032 19.9335 1.29032 20.6452V33.5484C0.57871 33.5484 0 34.1271 0 34.8387V36.129C0 36.8406 0.57871 37.4194 1.29032 37.4194H4.3129C4.12129 37.0181 3.98839 36.5845 3.92258 36.129H1.29032V34.8387H3.92258C3.98839 34.3832 4.12129 33.9497 4.3129 33.5484H2.58065V20.6452H7.74194V25.56L10.9677 23.9471L14.1935 25.56V20.6452H19.3548V33.5484H12.4613C12.6529 33.9497 12.7858 34.3832 12.8516 34.8387H19.4065C19.4703 34.3935 19.6013 33.9716 19.7852 33.5781C20.0019 33.1148 20.291 32.691 20.6452 32.329V24.5161H26.7342C27.0303 24.5161 27.2884 24.7174 27.36 25.0045L27.5606 25.8064H24.5161C23.8045 25.8064 23.2258 26.3852 23.2258 27.0968V28.3871C23.2258 29.0987 23.8045 29.6774 24.5161 29.6774H28.5284L29.4961 33.5484H27.9452C28.1368 33.9497 28.2697 34.3832 28.3355 34.8387H29.6774V36.129H28.3355C28.2697 36.5845 28.1368 37.0181 27.9452 37.4194H29.6774C30.389 37.4194 30.9677 36.8406 30.9677 36.129V34.3523C30.9677 34.1948 30.9484 34.0374 30.9103 33.8826L30.4974 32.231C31.4587 31.4058 32.3161 30.4755 33.0574 29.4523L35.4839 32.6884L39.0968 27.871C39.6794 27.0948 40 26.1323 40 25.1613C40 22.8813 38.2994 20.9948 36.1006 20.6923ZM27.0968 1.29032C30.6542 1.29032 33.5484 4.18452 33.5484 7.74194V7.86774C33.5484 9.30645 33.0587 10.7226 32.1697 11.8535L27.0968 18.311L22.0239 11.8535C21.1348 10.7226 20.6452 9.3071 20.6452 7.86774V7.74194C20.6452 4.18452 23.5394 1.29032 27.0968 1.29032ZM9.67742 5.16129C11.4561 5.16129 12.9032 6.60839 12.9032 8.3871C12.9032 9.08064 12.6742 9.76839 12.2581 10.3219L9.67742 13.7632L7.09677 10.3219C6.68064 9.76839 6.45161 9.08064 6.45161 8.3871C6.45161 6.60839 7.89871 5.16129 9.67742 5.16129ZM12.9032 23.4723L10.9677 22.5045L9.03226 23.4723V20.6452H12.9032V23.4723ZM24.5161 28.3871V27.0968H27.8832L28.2058 28.3871H24.5161ZM30.1452 30.8226L28.6123 24.6916C28.3961 23.829 27.6239 23.2258 26.7342 23.2258H20.6452V20.6452C20.6452 19.9335 20.0665 19.3548 19.3548 19.3548H5.18452C5.28774 16.951 5.96129 14.631 7.16323 12.5619L9.67742 15.9142L13.2903 11.0968C13.8729 10.3206 14.1935 9.35806 14.1935 8.3871C14.1935 7.72323 14.0458 7.09419 13.7871 6.52581C15.6774 5.65032 17.6968 5.19355 19.8039 5.1671C19.5187 5.97419 19.3548 6.83806 19.3548 7.74194V7.86774C19.3548 9.59484 19.9426 11.2942 21.009 12.651L27.0968 20.3987L33.0129 12.869C34.2084 15.0471 34.8387 17.4923 34.8387 20C34.8387 20.2329 34.8206 20.4671 34.8103 20.7013C32.6394 21.0284 30.9677 22.9006 30.9677 25.1613C30.9677 26.1329 31.289 27.0948 31.871 27.8703L32.2432 28.3671C31.6323 29.2594 30.9335 30.0839 30.1452 30.8226ZM38.0645 27.0961L35.4839 30.5374L32.9032 27.0961C32.4871 26.5426 32.2581 25.8548 32.2581 25.1613C32.2581 23.3826 33.7052 21.9355 35.4839 21.9355C37.2626 21.9355 38.7097 23.3826 38.7097 25.1613C38.7097 25.8548 38.4806 26.5426 38.0645 27.0961Z" fill="#051833"/>
<path d="M15.4839 16.7742H16.7742V18.0645H15.4839V16.7742Z" fill="#051833"/>
<path d="M18.0645 16.7742H19.3548V18.0645H18.0645V16.7742Z" fill="#051833"/>
<path d="M20.645 16.7742H21.9354V18.0645H20.645V16.7742Z" fill="#051833"/>
<path d="M23.871 33.5483C22.8039 33.5483 21.9355 34.4167 21.9355 35.4838C21.9355 36.5509 22.8039 37.4193 23.871 37.4193C24.9381 37.4193 25.8065 36.5509 25.8065 35.4838C25.8065 34.4167 24.9381 33.5483 23.871 33.5483ZM23.871 36.129C23.5156 36.129 23.2259 35.84 23.2259 35.4838C23.2259 35.1277 23.5156 34.8387 23.871 34.8387C24.2265 34.8387 24.5162 35.1277 24.5162 35.4838C24.5162 35.84 24.2265 36.129 23.871 36.129Z" fill="#051833"/>
<path d="M8.38715 33.5483C7.32005 33.5483 6.45166 34.4167 6.45166 35.4838C6.45166 36.5509 7.32005 37.4193 8.38715 37.4193C9.45425 37.4193 10.3226 36.5509 10.3226 35.4838C10.3226 34.4167 9.45425 33.5483 8.38715 33.5483ZM8.38715 36.129C8.03166 36.129 7.74198 35.84 7.74198 35.4838C7.74198 35.1277 8.03166 34.8387 8.38715 34.8387C8.74263 34.8387 9.03231 35.1277 9.03231 35.4838C9.03231 35.84 8.74263 36.129 8.38715 36.129Z" fill="#051833"/>
</svg>
