<svg width="68" height="68" viewBox="0 0 68 68" fill="none" xmlns="http://www.w3.org/2000/svg">
<path d="M47.3332 28.2334L30.6665 18.6001C29.6536 18.0152 28.5046 17.7072 27.3349 17.7069C26.1652 17.7066 25.0161 18.0141 24.0028 18.5984C22.9895 19.1827 22.1479 20.0233 21.5622 21.0358C20.9766 22.0483 20.6677 23.1971 20.6665 24.3667V43.6334C20.6677 44.8025 20.9763 45.9507 21.5614 46.9629C22.1465 47.975 22.9874 48.8155 23.9999 49.4001C25.0133 49.9852 26.1629 50.2932 27.3332 50.2932C28.5034 50.2932 29.6531 49.9852 30.6665 49.4001L47.3332 39.7667C48.3434 39.1807 49.182 38.3396 49.765 37.3275C50.3479 36.3154 50.6547 35.168 50.6547 34.0001C50.6547 32.8322 50.3479 31.6847 49.765 30.6727C49.182 29.6606 48.3434 28.8195 47.3332 28.2334ZM43.9999 34.0001L27.3332 43.6334V24.3667L43.9999 34.0001ZM33.9999 0.666748C27.4071 0.666748 20.9625 2.62171 15.4808 6.28443C9.99921 9.94714 5.72679 15.1531 3.20387 21.244C0.680947 27.3348 0.0208356 34.0371 1.30701 40.5031C2.59318 46.9691 5.76788 52.9086 10.4296 57.5703C15.0914 62.2321 21.0308 65.4068 27.4968 66.6929C33.9629 67.9791 40.6651 67.319 46.756 64.7961C52.8468 62.2732 58.0528 58.0007 61.7155 52.5191C65.3782 47.0375 67.3332 40.5928 67.3332 34.0001C67.3332 29.6227 66.471 25.2882 64.7958 21.244C63.1207 17.1998 60.6654 13.5251 57.5701 10.4299C54.4748 7.33457 50.8002 4.87925 46.756 3.2041C42.7118 1.52894 38.3772 0.666748 33.9999 0.666748ZM33.9999 60.6668C28.7257 60.6668 23.57 59.1028 19.1846 56.1726C14.7993 53.2424 11.3814 49.0777 9.36307 44.205C7.34473 39.3323 6.81664 33.9705 7.84558 28.7977C8.87452 23.6248 11.4143 18.8733 15.1437 15.1439C18.8731 11.4145 23.6246 8.87475 28.7974 7.84581C33.9703 6.81687 39.332 7.34496 44.2047 9.36329C49.0774 11.3816 53.2422 14.7996 56.1724 19.1849C59.1025 23.5702 60.6665 28.7259 60.6665 34.0001C60.6665 41.0725 57.857 47.8553 52.856 52.8563C47.8551 57.8572 41.0723 60.6668 33.9999 60.6668Z" fill="white"/>
</svg>
