<svg width="77" height="40" viewBox="0 0 77 40" fill="none" xmlns="http://www.w3.org/2000/svg">
<path d="M16.1903 28.3598C16.5562 28.3598 16.9186 28.2879 17.2567 28.1478C17.5948 28.0078 17.902 27.8026 18.1608 27.5438C18.4195 27.2851 18.6248 26.9779 18.7649 26.6398C18.9049 26.3017 18.977 25.9393 18.977 25.5734C18.977 20.3999 21.0321 15.4384 24.6903 11.7802C28.3484 8.12198 33.3101 6.06683 38.4836 6.06683C43.657 6.06683 48.6187 8.12198 52.2767 11.7802C55.9351 15.4384 57.9901 20.3999 57.9901 25.5734C57.9973 26.3076 58.2942 27.0093 58.8161 27.5259C59.3377 28.0425 60.0424 28.3323 60.7768 28.3323C61.511 28.3323 62.2157 28.0425 62.7373 27.5259C63.2592 27.0093 63.5561 26.3076 63.5633 25.5734C63.5633 22.2799 62.9145 19.0186 61.6543 15.9758C60.3938 12.933 58.5465 10.1682 56.2177 7.83933C53.8886 5.51046 51.1239 3.6631 48.0812 2.40274C45.0382 1.14236 41.7772 0.493652 38.4836 0.493652C35.1899 0.493652 31.9289 1.14236 28.8859 2.40274C25.8431 3.6631 23.0784 5.51046 20.7495 7.83933C18.4206 10.1682 16.5733 12.933 15.3129 15.9758C14.0525 19.0186 13.4038 22.2799 13.4038 25.5734C13.4038 26.3124 13.6974 27.0212 14.2199 27.5437C14.7425 28.0663 15.4513 28.3598 16.1903 28.3598Z" fill="white"/>
<path d="M74.1529 33.9331H49.6212C51.4376 31.525 52.4185 28.59 52.4154 25.5735C52.4154 21.8782 50.9474 18.3342 48.3345 15.7212C45.7214 13.1082 42.1774 11.6403 38.4821 11.6403C34.787 11.6403 31.243 13.1082 28.6299 15.7212C26.0169 18.3342 24.549 21.8782 24.549 25.5735C24.549 26.3126 24.8426 27.0214 25.3652 27.544C25.8878 28.0666 26.5966 28.3602 27.3357 28.3602C28.0749 28.3602 28.7837 28.0666 29.3062 27.544C29.8289 27.0214 30.1224 26.3126 30.1224 25.5735C30.1224 23.92 30.6126 22.3037 31.5312 20.9289C32.4499 19.5541 33.7554 18.4825 35.283 17.8497C36.8106 17.2169 38.4915 17.0514 40.1132 17.3739C41.7348 17.6965 43.2245 18.4926 44.3935 19.6618C45.5628 20.8309 46.359 22.3205 46.6817 23.9422C47.0042 25.5638 46.8386 27.2448 46.206 28.7722C45.5731 30.2998 44.5018 31.6057 43.1269 32.5243C41.752 33.4429 40.1357 33.9331 38.4823 33.9331H2.81458C2.44629 33.9295 2.08093 33.9988 1.73962 34.1373C1.3983 34.2756 1.08781 34.4804 0.826084 34.7394C0.564359 34.9986 0.356588 35.3069 0.214797 35.6468C0.0730045 35.9868 0 36.3515 0 36.7199C0 37.0879 0.0730045 37.4526 0.214797 37.7926C0.356588 38.1326 0.564359 38.4408 0.826084 38.7001C1.08781 38.9591 1.3983 39.1639 1.73962 39.3021C2.08093 39.4407 2.44629 39.5099 2.81458 39.5063H74.1529C74.8871 39.4991 75.5887 39.2022 76.1053 38.6803C76.6219 38.1587 76.9118 37.454 76.9118 36.7199C76.9118 35.9854 76.6219 35.2807 76.1053 34.7591C75.5887 34.2372 74.8871 33.9404 74.1529 33.9331Z" fill="white"/>
</svg>
