<svg width="101" height="100" viewBox="0 0 101 100" fill="none" xmlns="http://www.w3.org/2000/svg">
<path d="M52.229 1.5625V29.6875H69.4165V26.5625C69.4165 24.8359 70.8149 23.4375 72.5415 23.4375C74.2681 23.4375 75.6665 24.8359 75.6665 26.5625V29.6875H99.104V1.5625H52.229Z" fill="#13CF8F"/>
<path d="M28.7915 98.4375C19.3149 98.4375 11.604 90.7266 11.604 81.25C11.604 71.7734 19.3149 64.0625 28.7915 64.0625C38.2681 64.0625 45.979 71.7734 45.979 81.25C45.979 90.7266 38.2681 98.4375 28.7915 98.4375Z" fill="#13CF8F"/>
<path d="M61.604 17.1875H63.1665C65.7509 17.1875 67.854 15.0844 67.854 12.5C67.854 9.91562 65.7509 7.8125 63.1665 7.8125H58.479V23.4375H61.604V17.1875ZM61.604 10.9375H63.1665C64.029 10.9375 64.729 11.6391 64.729 12.5C64.729 13.3609 64.029 14.0625 63.1665 14.0625H61.604V10.9375Z" fill="#051833"/>
<path d="M86.604 16.9V23.4375H89.729V16.9C91.5431 16.2531 92.854 14.5344 92.854 12.5V7.8125H89.729V12.5C89.729 13.3609 89.029 14.0625 88.1665 14.0625C87.304 14.0625 86.604 13.3609 86.604 12.5V7.8125H83.479V12.5C83.479 14.5344 84.7899 16.2531 86.604 16.9Z" fill="#051833"/>
<path d="M95.1556 72.3297C95.6931 71.2516 95.979 70.0422 95.979 68.8375V50C95.979 47.4156 93.8759 45.3125 91.2915 45.3125C90.4524 45.3125 89.6759 45.5516 88.9931 45.9391C88.1618 44.6281 86.7056 43.75 85.0415 43.75C84.2024 43.75 83.4259 43.9891 82.7431 44.3766C81.9118 43.0656 80.4556 42.1875 78.7915 42.1875C78.2415 42.1875 77.7196 42.3 77.229 42.475V26.5625C77.229 24.5281 75.9181 22.8094 74.104 22.1625V20.3125H77.229V23.4375H80.354V12.5C80.354 9.91562 78.2509 7.8125 75.6665 7.8125C73.0821 7.8125 70.979 9.91562 70.979 12.5V22.1625C69.1649 22.8094 67.854 24.5281 67.854 26.5625V61.025C67.854 61.7359 67.6899 62.4484 67.3774 63.0859L66.0431 56.4156C65.1212 51.7922 61.0243 48.4375 56.204 48.4375C54.0134 48.4375 52.229 50.2141 52.229 52.3984C52.229 53.1828 52.4587 53.9422 52.8946 54.5953L54.5024 57.0078C55.0978 57.9 55.4821 58.9344 55.6149 59.9984L56.7228 68.8578C56.8899 70.2047 57.4087 71.4922 58.2259 72.5766L61.604 77.0828V79.6875H58.479V98.4375H95.979V79.6875H92.854V76.9313L95.1556 72.3297ZM75.6665 10.9375C76.529 10.9375 77.229 11.6391 77.229 12.5V17.1875H74.104V12.5C74.104 11.6391 74.804 10.9375 75.6665 10.9375ZM92.854 95.3125H61.604V82.8125H92.854V95.3125ZM64.729 79.6875V76.0422L60.7243 70.7016C60.2353 70.05 59.9228 69.2797 59.8228 68.4719L58.7149 59.6109C58.5228 58.0688 57.9665 56.5687 57.1024 55.275L55.4946 52.8625C55.4024 52.725 55.354 52.5656 55.354 52.3984C55.354 51.9297 55.7274 51.5625 56.3024 51.5625C59.5384 51.5625 62.3462 53.8625 62.979 57.0297L65.0103 67.1875H68.8196L70.154 64.5172C70.6931 63.4391 70.979 62.2297 70.979 61.025V26.5625C70.979 25.7016 71.679 25 72.5415 25C73.404 25 74.104 25.7016 74.104 26.5625V46.875V53.125H77.229V46.875C77.229 46.0141 77.929 45.3125 78.7915 45.3125C79.654 45.3125 80.354 46.0141 80.354 46.875V48.4375V53.125H83.479V48.4375C83.479 47.5766 84.179 46.875 85.0415 46.875C85.904 46.875 86.604 47.5766 86.604 48.4375V50V53.125H89.729V50C89.729 49.1391 90.429 48.4375 91.2915 48.4375C92.154 48.4375 92.854 49.1391 92.854 50V68.8375C92.854 69.5609 92.6837 70.2875 92.3603 70.9344L89.729 76.1937V79.6875H64.729Z" fill="#051833"/>
<path d="M33.479 42.1875H42.854V32.8125H33.479V42.1875ZM36.604 35.9375H39.729V39.0625H36.604V35.9375Z" fill="#051833"/>
<path d="M42.854 20.3125H33.479V29.6875H42.854V20.3125ZM39.729 26.5625H36.604V23.4375H39.729V26.5625Z" fill="#051833"/>
<path d="M33.479 54.6875H42.854V45.3125H33.479V54.6875ZM36.604 48.4375H39.729V51.5625H36.604V48.4375Z" fill="#051833"/>
<path d="M52.229 23.4375H49.104V17.1875H52.229V14.0625H2.229V26.5625H8.479V68.75C8.479 71.3344 10.5821 73.4375 13.1665 73.4375H13.5009C14.0728 72.3219 14.7509 71.2703 15.5431 70.3125H13.1665C12.304 70.3125 11.604 69.6125 11.604 68.75V17.1875H17.854V68.0016C18.8118 67.2094 19.8634 66.5312 20.979 65.9594V17.1875H24.104V64.7281C25.1118 64.4422 26.1556 64.2391 27.229 64.1406V17.1875H45.979V68.75C45.979 69.6125 45.279 70.3125 44.4165 70.3125H42.0399C42.8321 71.2703 43.5103 72.3219 44.0821 73.4375H44.4165C47.0009 73.4375 49.104 71.3344 49.104 68.75V26.5625H52.229V23.4375ZM8.479 23.4375H5.354V17.1875H8.479V23.4375Z" fill="#051833"/>
<path d="M42.854 57.8125H33.479V64.7281C35.3493 65.2594 37.0899 66.0953 38.6431 67.1875H42.854V57.8125ZM39.729 64.0625H36.604V60.9375H39.729V64.0625Z" fill="#051833"/>
<path d="M30.354 76.5625C31.2165 76.5625 31.9165 77.2625 31.9165 78.125H35.0415C35.0415 75.5406 32.9384 73.4375 30.354 73.4375V70.3125H27.229V73.4375H22.5415V78.125C22.5415 80.7094 24.6446 82.8125 27.229 82.8125H30.354C31.2165 82.8125 31.9165 83.5125 31.9165 84.375V85.9375H27.229C26.3665 85.9375 25.6665 85.2375 25.6665 84.375H22.5415C22.5415 86.9594 24.6446 89.0625 27.229 89.0625V92.1875H30.354V89.0625H35.0415V84.375C35.0415 81.7906 32.9384 79.6875 30.354 79.6875H27.229C26.3665 79.6875 25.6665 78.9875 25.6665 78.125V76.5625H30.354Z" fill="#051833"/>
</svg>
