<svg width="100" height="100" viewBox="0 0 100 100" fill="none" xmlns="http://www.w3.org/2000/svg">
<path d="M24.1937 25.8063C21.5259 25.8063 19.355 23.6354 19.355 20.9676C19.355 18.2999 21.5259 16.1289 24.1937 16.1289C26.8614 16.1289 29.0324 18.2999 29.0324 20.9676C29.0324 23.6354 26.8614 25.8063 24.1937 25.8063Z" fill="#13CF8F"/>
<path d="M88.7098 67.7419C86.0421 67.7419 83.8711 65.5709 83.8711 62.9032C83.8711 60.2354 86.0421 58.0645 88.7098 58.0645C91.3776 58.0645 93.5486 60.2354 93.5486 62.9032C93.5486 65.5709 91.3776 67.7419 88.7098 67.7419Z" fill="#13CF8F"/>
<path d="M67.7421 32.2581C60.6276 32.2581 54.8389 26.4694 54.8389 19.3549C54.8389 12.2404 60.6276 6.45166 67.7421 6.45166C74.8566 6.45166 80.6453 12.2404 80.6453 19.3549C80.6453 26.4694 74.8566 32.2581 67.7421 32.2581Z" fill="#13CF8F"/>
<path d="M59.6775 100C53.4517 100 48.3872 94.9339 48.3872 88.7097C48.3872 82.4856 53.4517 77.4194 59.6775 77.4194C65.9033 77.4194 70.9678 82.4856 70.9678 88.7097C70.9678 94.9339 65.9033 100 59.6775 100ZM59.6775 85.4839C57.8985 85.4839 56.4517 86.9307 56.4517 88.7097C56.4517 90.4888 57.8985 91.9355 59.6775 91.9355C61.4565 91.9355 62.9033 90.4888 62.9033 88.7097C62.9033 86.9307 61.4565 85.4839 59.6775 85.4839Z" fill="#13CF8F"/>
<path d="M20.9676 100C14.7418 100 9.67725 94.9339 9.67725 88.7097C9.67725 82.4856 14.7418 77.4194 20.9676 77.4194C27.1934 77.4194 32.2579 82.4856 32.2579 88.7097C32.2579 94.9339 27.1934 100 20.9676 100ZM20.9676 85.4839C19.1885 85.4839 17.7418 86.9307 17.7418 88.7097C17.7418 90.4888 19.1885 91.9355 20.9676 91.9355C22.7466 91.9355 24.1934 90.4888 24.1934 88.7097C24.1934 86.9307 22.7466 85.4839 20.9676 85.4839Z" fill="#13CF8F"/>
<path d="M32.1291 90.3228C31.9646 91.4615 31.6324 92.5454 31.1533 93.5486H49.492C49.013 92.5454 48.6807 91.4615 48.5162 90.3228H32.1291Z" fill="#051833"/>
<path d="M90.2516 51.7306C90.2758 51.1532 90.3226 50.5758 90.3226 50C90.3226 42.6484 88.3161 35.5016 84.5484 29.2419C86.1984 26.3387 87.0968 23.0274 87.0968 19.671V19.3548C87.0968 8.68226 78.4145 0 67.7419 0C60.5839 0 54.3339 3.91613 50.9855 9.70968C44.7323 9.56613 38.3839 10.9 32.7161 13.5855C30.6435 11.1968 27.5952 9.67742 24.1935 9.67742C17.9677 9.67742 12.9032 14.7435 12.9032 20.9677C12.9032 23.3968 13.7065 25.8016 15.1613 27.7403L15.829 28.6306C12.1016 34.5806 10.0145 41.3532 9.7371 48.3871H6.45161C4.67258 48.3871 3.22581 49.8339 3.22581 51.6129V83.871C1.44677 83.871 0 85.3177 0 87.0968V90.3226C0 92.1016 1.44677 93.5484 3.22581 93.5484H10.7823C10.3032 92.5452 9.97097 91.4613 9.80645 90.3226H3.22581V87.0968H9.80645C9.97097 85.9581 10.3032 84.8742 10.7823 83.871H6.45161V51.6129H19.3548V63.9L27.4194 59.8677L35.4839 63.9V51.6129H48.3871V83.871H31.1532C31.6323 84.8742 31.9645 85.9581 32.129 87.0968H48.5161C48.6758 85.9839 49.0032 84.929 49.4629 83.9452C50.0048 82.7871 50.7274 81.7274 51.6129 80.8226V61.2903H66.8355C67.5758 61.2903 68.221 61.7935 68.4 62.5113L68.9016 64.5161H61.2903C59.5113 64.5161 58.0645 65.9629 58.0645 67.7419V70.9677C58.0645 72.7468 59.5113 74.1935 61.2903 74.1935H71.321L73.7403 83.871H69.8629C70.3419 84.8742 70.6742 85.9581 70.8387 87.0968H74.1936V90.3226H70.8387C70.6742 91.4613 70.3419 92.5452 69.8629 93.5484H74.1936C75.9726 93.5484 77.4194 92.1016 77.4194 90.3226V85.8806C77.4194 85.4871 77.371 85.0935 77.2758 84.7065L76.2435 80.5774C78.6468 78.5145 80.7903 76.1887 82.6435 73.6306L88.7097 81.721L97.7419 69.6774C99.1984 67.7371 100 65.3306 100 62.9032C100 57.2032 95.7484 52.4871 90.2516 51.7306ZM67.7419 3.22581C76.6355 3.22581 83.871 10.4613 83.871 19.3548V19.6694C83.871 23.2661 82.6468 26.8064 80.4242 29.6339L67.7419 45.7774L55.0597 29.6339C52.8371 26.8064 51.6129 23.2677 51.6129 19.6694V19.3548C51.6129 10.4613 58.8484 3.22581 67.7419 3.22581ZM24.1935 12.9032C28.6403 12.9032 32.2581 16.521 32.2581 20.9677C32.2581 22.7016 31.6855 24.421 30.6452 25.8048L24.1935 34.4081L17.7419 25.8048C16.7016 24.421 16.129 22.7016 16.129 20.9677C16.129 16.521 19.7468 12.9032 24.1935 12.9032ZM32.2581 58.6806L27.4194 56.2613L22.5806 58.6806V51.6129H32.2581V58.6806ZM61.2903 70.9677V67.7419H69.7081L70.5145 70.9677H61.2903ZM75.3629 77.0564L71.5306 61.729C70.9903 59.5726 69.0597 58.0645 66.8355 58.0645H51.6129V51.6129C51.6129 49.8339 50.1661 48.3871 48.3871 48.3871H12.9613C13.2194 42.3774 14.9032 36.5774 17.9081 31.4048L24.1935 39.7855L33.2258 27.7419C34.6823 25.8016 35.4839 23.3952 35.4839 20.9677C35.4839 19.3081 35.1145 17.7355 34.4677 16.3145C39.1936 14.1258 44.2419 12.9839 49.5097 12.9177C48.7968 14.9355 48.3871 17.0952 48.3871 19.3548V19.6694C48.3871 23.9871 49.8564 28.2355 52.5226 31.6274L67.7419 50.9968L82.5323 32.1726C85.521 37.6177 87.0968 43.7306 87.0968 50C87.0968 50.5823 87.0516 51.1677 87.0258 51.7532C81.5984 52.571 77.4194 57.2516 77.4194 62.9032C77.4194 65.3323 78.2226 67.7371 79.6774 69.6758L80.6081 70.9177C79.0807 73.1484 77.3339 75.2097 75.3629 77.0564ZM95.1613 67.7403L88.7097 76.3435L82.2581 67.7403C81.2177 66.3564 80.6452 64.6371 80.6452 62.9032C80.6452 58.4564 84.2629 54.8387 88.7097 54.8387C93.1565 54.8387 96.7742 58.4564 96.7742 62.9032C96.7742 64.6371 96.2016 66.3564 95.1613 67.7403Z" fill="#051833"/>
<path d="M38.7095 41.9355H41.9353V45.1614H38.7095V41.9355Z" fill="#051833"/>
<path d="M45.1611 41.9355H48.3869V45.1614H45.1611V41.9355Z" fill="#051833"/>
<path d="M51.6128 41.9355H54.8386V45.1614H51.6128V41.9355Z" fill="#051833"/>
<path d="M59.6776 83.8711C57.0098 83.8711 54.8389 86.0421 54.8389 88.7098C54.8389 91.3776 57.0098 93.5486 59.6776 93.5486C62.3453 93.5486 64.5163 91.3776 64.5163 88.7098C64.5163 86.0421 62.3453 83.8711 59.6776 83.8711ZM59.6776 90.3227C58.7889 90.3227 58.0647 89.6001 58.0647 88.7098C58.0647 87.8195 58.7889 87.0969 59.6776 87.0969C60.5663 87.0969 61.2905 87.8195 61.2905 88.7098C61.2905 89.6001 60.5663 90.3227 59.6776 90.3227Z" fill="#051833"/>
<path d="M20.9676 83.8711C18.2999 83.8711 16.1289 86.0421 16.1289 88.7098C16.1289 91.3776 18.2999 93.5486 20.9676 93.5486C23.6354 93.5486 25.8063 91.3776 25.8063 88.7098C25.8063 86.0421 23.6354 83.8711 20.9676 83.8711ZM20.9676 90.3227C20.0789 90.3227 19.3547 89.6001 19.3547 88.7098C19.3547 87.8195 20.0789 87.0969 20.9676 87.0969C21.8563 87.0969 22.5805 87.8195 22.5805 88.7098C22.5805 89.6001 21.8563 90.3227 20.9676 90.3227Z" fill="#051833"/>
</svg>
