<svg width="101" height="100" viewBox="0 0 101 100" fill="none" xmlns="http://www.w3.org/2000/svg">
<g clip-path="url(#clip0_752_15293)">
<path d="M77.6374 30.6452C77.3245 30.6452 77.01 30.5532 76.7374 30.371C76.21 30.0161 75.9406 29.3871 76.0471 28.7597L77.1067 22.5807H72.7987C70.1309 22.5807 67.96 20.4097 67.96 17.7419V4.83871C67.96 2.17097 70.1309 0 72.7987 0H95.3793C98.0471 0 100.218 2.17097 100.218 4.83871V17.7419C100.218 20.4097 98.0471 22.5807 95.3793 22.5807H91.0035L78.4922 30.4C78.2309 30.5629 77.9342 30.6452 77.6374 30.6452Z" fill="#13CF8F"/>
<path d="M16.4635 67.8558L20.6343 63.6851L10.9574 54.0082L6.78667 58.179L16.4635 67.8558Z" fill="#13CF8F"/>
<path d="M42.3505 93.7451L46.9924 89.4919L37.315 79.8145L32.644 84.0386L42.3505 93.7451Z" fill="#13CF8F"/>
<path d="M77.7534 75.8934C76.4486 71.9821 73.1195 69.095 69.0615 68.3563L58.2825 66.395V65.5595C60.1583 64.4708 61.7905 63.0144 63.0905 61.2902H66.347C69.0147 61.2902 71.1857 59.1192 71.1857 56.4515V37.0966C71.1857 25.5354 61.7792 16.1289 50.2179 16.1289C38.6566 16.1289 29.2502 25.5354 29.2502 37.0966V48.387C29.2502 51.4966 31.4615 54.0983 34.3937 54.7047C35.2986 59.3402 38.1954 63.2628 42.1534 65.5595V66.395L31.3728 68.3563C27.3163 69.095 23.9857 71.9821 22.6824 75.8934L22.0373 77.8305L16.5437 72.337C15.9147 71.7079 15.9147 70.6837 16.5437 70.0547L22.9147 63.6854L10.9566 51.7273L3.75665 58.9273C1.62439 61.0595 0.450195 63.895 0.450195 66.9112C0.450195 69.9273 1.62439 72.7612 3.75665 74.8934L25.555 96.6918C27.6873 98.8241 30.5228 99.9999 33.5389 99.9999C36.555 99.9999 39.3889 98.8241 41.4712 96.7402L49.3276 89.5418L46.8776 87.0966H81.4873L77.7534 75.8934ZM50.2179 71.9128L45.3792 67.0741V66.9983C46.9083 67.4789 48.5324 67.7418 50.2179 67.7418C51.9034 67.7418 53.5276 67.4789 55.0566 66.9983V67.0741L50.2179 71.9128ZM66.347 58.0644H64.9905C65.4583 56.9983 65.8131 55.8741 66.0421 54.7047C66.7324 54.5612 67.3679 54.287 67.9599 53.9418V56.4515C67.9599 57.3418 67.2357 58.0644 66.347 58.0644ZM66.347 45.6095C67.3066 46.1692 67.9599 47.1983 67.9599 48.387C67.9599 49.5757 67.3066 50.6047 66.347 51.1644V45.6095ZM32.476 48.387C32.476 47.1983 33.1292 46.1692 34.0889 45.6095V51.1644C33.1292 50.6047 32.476 49.5757 32.476 48.387ZM34.0889 40.3225V42.1644C33.5147 42.3144 32.976 42.5402 32.476 42.8321V37.0966C32.476 27.3144 40.4357 19.3547 50.2179 19.3547C60.0002 19.3547 67.9599 27.3144 67.9599 37.0966V42.8321C67.4599 42.5402 66.9212 42.3128 66.347 42.1644V40.3225H64.7341C59.9647 40.3225 55.4808 38.4644 52.1066 35.0918L50.2179 33.2031L48.3292 35.0918C44.955 38.4644 40.4712 40.3225 35.7018 40.3225H34.0889ZM37.3147 51.6128V43.487C42.1583 43.1224 46.6744 41.1241 50.2179 37.7547C53.7615 41.1241 58.2776 43.1241 63.1212 43.487V51.6128C63.1212 53.9644 62.4792 56.1644 61.376 58.0644H50.2179V61.2902H58.7244C56.4502 63.2918 53.4776 64.516 50.2179 64.516C43.1034 64.516 37.3147 58.7273 37.3147 51.6128ZM18.3518 63.6854L16.6002 65.437L9.20342 58.0402L10.955 56.2886L18.3518 63.6854ZM33.5357 96.7741C31.3825 96.7741 29.3566 95.9337 27.8324 94.4112L6.03407 72.6144C4.51149 71.0918 3.67278 69.066 3.67278 66.9128C3.67278 64.7579 4.51149 62.7321 6.03407 61.2095L6.92116 60.3225L14.3179 67.7192L14.2599 67.7773C12.3744 69.6644 12.3744 72.7337 14.2599 74.6208L25.826 86.187C26.7405 87.0999 27.955 87.6047 29.2486 87.6047C30.5421 87.6047 31.7566 87.1015 32.6115 86.2434L32.7324 86.1353L40.1631 93.566L39.2373 94.4144C37.7147 95.9337 35.6889 96.7741 33.5357 96.7741ZM42.5437 91.3821L35.1292 83.9676L37.2599 82.0418L44.6615 89.4434L42.5437 91.3821ZM43.6518 83.8708L37.3695 77.5886L30.3889 83.9031C29.7808 84.5144 28.7179 84.5144 28.1083 83.9031L24.5857 80.3805L25.7405 76.9128C26.6712 74.1192 29.0502 72.0563 31.9486 71.5273L43.2228 69.4789L50.2179 76.4741L57.2115 69.4805L68.4841 71.5289C71.3824 72.0579 73.7615 74.1192 74.6921 76.9144L77.0131 83.8708H43.6518Z" fill="#051833"/>
<path d="M93.7665 6.45166H74.4116V9.67747H93.7665V6.45166Z" fill="#051833"/>
<path d="M87.3148 12.9033H74.4116V16.1291H87.3148V12.9033Z" fill="#051833"/>
<path d="M93.7663 12.9033H90.5405V16.1291H93.7663V12.9033Z" fill="#051833"/>
<path d="M15.5649 40.0921L13.9052 37.326L9.53421 39.9485C14.1052 21.3469 30.8326 8.06467 50.2181 8.06467C54.4552 8.06467 58.6358 8.69371 62.6439 9.93564L63.5987 6.855C59.281 5.51629 54.7794 4.83887 50.2181 4.83887C29.1439 4.83887 10.9907 19.4163 6.27131 39.7502L3.21486 34.655L0.44873 36.3147L6.11808 45.7614L15.5649 40.0921Z" fill="#051833"/>
<path d="M99.4358 35.7148L89.989 30.0454L84.3196 39.4922L87.0858 41.1519L89.9084 36.447C91.3938 40.7938 92.1535 45.3406 92.1535 50.0002C92.1535 59.5922 88.8309 68.9696 82.8003 76.4035L85.3051 78.4357C91.8019 70.4293 95.3793 60.3293 95.3793 50.0002C95.3793 45.0664 94.5842 40.2486 93.0342 35.6357L97.7745 38.4793L99.4358 35.7148Z" fill="#051833"/>
</g>
<defs>
<clipPath id="clip0_752_15293">
<rect width="100" height="100" fill="white" transform="translate(0.333496)"/>
</clipPath>
</defs>
</svg>
